<svg width="147" height="158" viewBox="0 0 147 158" fill="none" xmlns="http://www.w3.org/2000/svg">
<rect x="21.1323" width="126.541" height="139.761" rx="3.77733" transform="rotate(8.69669 21.1323 0)" fill="#FFBB0B"/>
<rect x="25.4587" y="21.6788" width="35.8846" height="35.8846" rx="3.77733" transform="rotate(8.69669 25.4587 21.6788)" fill="white"/>
<rect x="62.7977" y="27.3902" width="35.8846" height="35.8846" rx="3.77733" transform="rotate(8.69669 62.7977 27.3902)" fill="white"/>
<rect x="100.137" y="33.1017" width="35.8846" height="35.8846" rx="3.77733" transform="rotate(8.69669 100.137 33.1017)" fill="white"/>
<rect x="14.0359" y="96.3568" width="35.8846" height="35.8846" rx="3.77733" transform="rotate(8.69669 14.0359 96.3568)" fill="white"/>
<rect x="51.3749" y="102.068" width="35.8846" height="35.8846" rx="3.77733" transform="rotate(8.69669 51.3749 102.068)" fill="white"/>
<rect x="88.7139" y="107.78" width="35.8846" height="35.8846" rx="3.77733" transform="rotate(8.69669 88.7139 107.78)" fill="white"/>
<rect x="19.7473" y="59.0178" width="35.8846" height="35.8846" rx="3.77733" transform="rotate(8.69669 19.7473 59.0178)" fill="white"/>
<rect x="57.0863" y="64.7292" width="35.8846" height="35.8846" rx="3.77733" transform="rotate(8.69669 57.0863 64.7292)" fill="white"/>
<rect x="94.4254" y="70.4407" width="35.8846" height="35.8846" rx="3.77733" transform="rotate(8.69669 94.4254 70.4407)" fill="white"/>
<path d="M52.1329 15.8835L53.8978 13.2158L55.333 13.4354L52.6203 17.176L52.267 19.4864L50.9324 19.2823L51.2858 16.9719L49.8153 12.5914L51.2549 12.8116L52.1329 15.8835ZM54.7404 17.3973C54.8123 16.9277 54.9667 16.5229 55.2038 16.183C55.4409 15.8431 55.744 15.5984 56.1132 15.4489C56.4853 15.2998 56.896 15.2597 57.3452 15.3284C57.984 15.4261 58.4748 15.7012 58.8176 16.1537C59.1633 16.6066 59.3082 17.1721 59.2522 17.8501L59.2114 18.1753C59.1003 18.9016 58.8084 19.4541 58.3355 19.8325C57.8631 20.2081 57.2856 20.3436 56.603 20.2392C55.9204 20.1348 55.4083 19.8326 55.0669 19.3325C54.7283 18.8329 54.6166 18.2068 54.7317 17.4542L54.7404 17.3973ZM55.9909 17.6827C55.9222 18.1319 55.9542 18.4891 56.0868 18.7541C56.2198 19.0163 56.4439 19.1715 56.7589 19.2197C57.0652 19.2665 57.3223 19.1864 57.5301 18.9794C57.7383 18.7694 57.8819 18.4063 57.9609 17.89C58.0283 17.4495 57.9945 17.095 57.8594 16.8266C57.7243 16.5581 57.5007 16.4 57.1886 16.3523C56.8794 16.305 56.6216 16.3895 56.4154 16.6057C56.2096 16.819 56.0681 17.178 55.9909 17.6827ZM62.5446 20.5659C62.1745 20.8974 61.7138 21.021 61.1624 20.9366C60.6548 20.859 60.2892 20.6538 60.0654 20.321C59.8446 19.9887 59.7743 19.5406 59.8546 18.9767L60.3291 15.8744L61.5937 16.0678L61.1259 19.1264C61.0504 19.6194 61.2374 19.9002 61.6866 19.9689C62.1154 20.0345 62.4328 19.9308 62.6387 19.6578L63.1514 16.3061L64.4204 16.5002L63.6962 21.2346L62.506 21.0526L62.5446 20.5659ZM67.8533 18.2388C67.6848 18.1892 67.5349 18.1543 67.4036 18.1342C66.9252 18.061 66.5868 18.175 66.3885 18.476L65.9146 21.574L64.6501 21.3806L65.3743 16.6461L66.5688 16.8288L66.5175 17.3986C66.8378 17.0028 67.2225 16.8392 67.6718 16.908C67.8118 16.9294 67.9402 16.9684 68.0569 17.0251L67.8533 18.2388ZM70.2378 22.2353L71.2123 15.8643L73.4439 16.2056C74.2169 16.3239 74.7805 16.5624 75.1347 16.921C75.4892 17.2768 75.6228 17.7405 75.5353 18.3123C75.4876 18.6244 75.3652 18.8878 75.1682 19.1025C74.9716 19.3142 74.7219 19.4537 74.4191 19.5208C74.7333 19.6524 74.9648 19.8565 75.1135 20.133C75.2652 20.41 75.3136 20.7279 75.2587 21.0867C75.165 21.6993 74.8986 22.1332 74.4596 22.3884C74.0205 22.6437 73.4388 22.7189 72.7144 22.6141L70.2378 22.2353ZM71.9748 19.6619L71.7118 21.3815L72.8364 21.5535C73.1456 21.6008 73.3974 21.5647 73.5918 21.4452C73.7896 21.3232 73.9083 21.1324 73.948 20.8728C74.0373 20.2893 73.7807 19.9471 73.1782 19.8459L71.9748 19.6619ZM72.1167 18.7342L73.0881 18.8828C73.7521 18.9725 74.1236 18.7591 74.2026 18.2428C74.2467 17.954 74.1938 17.7339 74.0438 17.5826C73.8972 17.4288 73.643 17.3243 73.2813 17.2689L72.3624 17.1284L72.1167 18.7342ZM77.2126 23.3021L75.9437 23.108L76.6679 18.3736L77.9368 18.5677L77.2126 23.3021ZM76.7809 17.137C76.8099 16.9474 76.8965 16.8009 77.0407 16.6976C77.1878 16.5947 77.3707 16.56 77.5895 16.5935C77.8053 16.6265 77.9681 16.7141 78.0777 16.8562C78.1873 16.9984 78.2276 17.1643 78.1986 17.3539C78.1692 17.5464 78.0794 17.6939 77.9294 17.7963C77.7823 17.8992 77.6023 17.9344 77.3894 17.9018C77.1764 17.8692 77.0137 17.7816 76.9011 17.639C76.7915 17.4969 76.7514 17.3295 76.7809 17.137ZM80.1465 18.9057L80.1022 19.4587C80.5053 19.0874 80.9913 18.9453 81.5601 19.0323C82.0619 19.1091 82.4127 19.3135 82.6127 19.6456C82.8127 19.9777 82.8707 20.4374 82.7869 21.0246L82.319 24.0832L81.0544 23.8898L81.5176 20.8618C81.5587 20.5935 81.53 20.3906 81.4316 20.2531C81.3337 20.1127 81.149 20.0218 80.8777 19.9803C80.5219 19.9259 80.2317 20.0367 80.0074 20.3129L79.4967 23.6515L78.2321 23.4581L78.9563 18.7236L80.1465 18.9057ZM83.4653 21.8001C83.5764 21.0738 83.838 20.5152 84.2501 20.1245C84.665 19.7342 85.1657 19.5839 85.752 19.6735C86.2713 19.753 86.6481 19.9927 86.8824 20.3928L87.0032 19.9545L88.1496 20.1299L87.4495 24.7068C87.3861 25.121 87.2362 25.4668 86.9998 25.7441C86.7662 26.0218 86.4665 26.2148 86.1007 26.323C85.7348 26.4313 85.3229 26.4504 84.8649 26.3803C84.5178 26.3272 84.1901 26.2054 83.8819 26.015C83.5733 25.8275 83.3511 25.6114 83.2153 25.3667L83.8932 24.6823C84.1543 25.0834 84.5094 25.3184 84.9587 25.3871C85.2941 25.4384 85.569 25.3879 85.7834 25.2356C85.9973 25.0862 86.1295 24.8467 86.1799 24.5171L86.2187 24.2633C85.8766 24.5483 85.4678 24.6544 84.9923 24.5817C84.4235 24.4947 83.9965 24.2025 83.7113 23.7051C83.4295 23.2052 83.3449 22.5878 83.4573 21.8526L83.4653 21.8001ZM84.7158 22.0855C84.6503 22.5143 84.6848 22.8644 84.8194 23.1357C84.9545 23.4042 85.1722 23.5614 85.4727 23.6073C85.8578 23.6662 86.1555 23.564 86.366 23.3006L86.6705 21.3097C86.5455 20.995 86.2948 20.8089 85.9185 20.7514C85.6151 20.705 85.357 20.7923 85.144 21.0135C84.934 21.2352 84.7913 21.5925 84.7158 22.0855ZM88.5731 22.5725C88.6449 22.1028 88.7994 21.698 89.0365 21.3581C89.2735 21.0183 89.5767 20.7736 89.9458 20.624C90.3179 20.475 90.7286 20.4348 91.1778 20.5035C91.8167 20.6012 92.3075 20.8763 92.6503 21.3288C92.9959 21.7817 93.1408 22.3472 93.0849 23.0253L93.0441 23.3504C92.933 24.0768 92.641 24.6292 92.1681 25.0076C91.6957 25.3832 91.1182 25.5187 90.4356 25.4143C89.753 25.3099 89.241 25.0077 88.8995 24.5077C88.561 24.0081 88.4493 23.382 88.5644 22.6294L88.5731 22.5725ZM89.8236 22.8578C89.7549 23.307 89.7868 23.6642 89.9194 23.9293C90.0525 24.1914 90.2765 24.3466 90.5916 24.3948C90.8979 24.4417 91.1549 24.3616 91.3627 24.1545C91.571 23.9446 91.7146 23.5814 91.7936 23.0651C91.8609 22.6246 91.8271 22.2701 91.692 22.0017C91.5569 21.7332 91.3333 21.5751 91.0212 21.5274C90.712 21.4801 90.4543 21.5646 90.248 21.7808C90.0423 21.9941 89.9008 22.3531 89.8236 22.8578ZM101.109 24.7855C100.954 25.4635 100.618 25.9643 100.1 26.2881C99.5846 26.6123 98.9536 26.7173 98.2068 26.603C97.39 26.4781 96.7887 26.1055 96.403 25.4852C96.0206 24.8625 95.9028 24.0713 96.0496 23.1116L96.1091 22.7221C96.2028 22.1095 96.3933 21.5864 96.6806 21.1527C96.9678 20.7189 97.3302 20.4087 97.7678 20.2218C98.2087 20.0325 98.6947 19.9785 99.2256 20.0597C99.9607 20.1722 100.523 20.4596 100.912 20.9222C101.301 21.3847 101.476 21.9772 101.437 22.6997L100.124 22.4989C100.155 22.0827 100.085 21.7675 99.9151 21.5534C99.7482 21.3368 99.4635 21.1977 99.0609 21.1361C98.6234 21.0692 98.2711 21.1765 98.0041 21.4581C97.7405 21.7372 97.5554 22.206 97.4487 22.8643L97.3751 23.3457C97.2698 24.0341 97.2964 24.5531 97.4548 24.9028C97.6162 25.2529 97.9215 25.4623 98.3708 25.531C98.7763 25.593 99.0922 25.5473 99.3187 25.3939C99.5485 25.238 99.7077 24.9683 99.7962 24.5847L101.109 24.7855ZM104.307 27.4465C104.266 27.3238 104.245 27.1759 104.245 27.0027C103.886 27.2971 103.462 27.4069 102.972 27.3319C102.508 27.261 102.144 27.0679 101.878 26.7526C101.616 26.4379 101.516 26.0763 101.579 25.6679C101.655 25.1661 101.899 24.8094 102.311 24.5977C102.725 24.3865 103.284 24.3331 103.988 24.4378L104.57 24.5268L104.611 24.2555C104.645 24.0367 104.615 23.853 104.521 23.7043C104.43 23.5561 104.264 23.4634 104.022 23.4264C103.809 23.3938 103.633 23.4192 103.495 23.5026C103.36 23.5864 103.279 23.7173 103.251 23.8952L101.987 23.7018C102.029 23.4276 102.152 23.1867 102.357 22.9792C102.562 22.7717 102.829 22.626 103.158 22.542C103.488 22.4551 103.845 22.4412 104.23 22.5001C104.814 22.5893 105.254 22.8073 105.55 23.1542C105.85 23.4985 105.959 23.9362 105.878 24.4671L105.564 26.5193C105.498 26.969 105.509 27.3184 105.596 27.5676L105.584 27.642L104.307 27.4465ZM103.395 26.4071C103.582 26.4356 103.761 26.4211 103.931 26.3635C104.101 26.303 104.235 26.2086 104.332 26.0801L104.457 25.2663L103.984 25.194C103.351 25.0971 102.981 25.2644 102.873 25.6957L102.857 25.7694C102.833 25.927 102.869 26.0652 102.964 26.1843C103.059 26.3034 103.203 26.3776 103.395 26.4071ZM109.571 24.6201C109.402 24.5704 109.252 24.5355 109.121 24.5154C108.643 24.4423 108.304 24.5562 108.106 24.8572L107.632 27.9552L106.368 27.7618L107.092 23.0273L108.286 23.21L108.235 23.7798C108.555 23.384 108.94 23.2205 109.389 23.2892C109.529 23.3106 109.658 23.3496 109.774 23.4063L109.571 24.6201ZM109.724 25.8167C109.837 25.0786 110.091 24.5161 110.488 24.1289C110.887 23.7422 111.374 23.5928 111.949 23.6807C112.41 23.7512 112.764 23.9816 113.012 24.3717L113.382 21.9564L114.651 22.1505L113.623 28.8715L112.48 28.6968L112.496 28.1842C112.121 28.5298 111.685 28.6647 111.189 28.5889C110.632 28.5036 110.218 28.2164 109.946 27.727C109.678 27.2352 109.604 26.5985 109.724 25.8167ZM110.974 26.102C110.906 26.5454 110.932 26.8971 111.05 27.157C111.169 27.4169 111.375 27.5694 111.67 27.6145C112.061 27.6743 112.362 27.5516 112.572 27.2465L112.858 25.3781C112.751 25.0244 112.504 24.8179 112.116 24.7585C111.506 24.6653 111.125 25.1131 110.974 26.102Z" fill="black"/>
<path d="M66.6892 85.6263L63.631 85.1585L63.1478 88.3176L61.555 88.074L62.7374 80.3436L67.7707 81.1135L67.5733 82.4036L64.1329 81.8774L63.8275 83.8737L66.8857 84.3415L66.6892 85.6263ZM71.1598 85.1365C70.9553 85.0763 70.7734 85.0339 70.6142 85.0096C70.0337 84.9208 69.6231 85.059 69.3825 85.4243L68.8075 89.1833L67.2731 88.9486L68.1519 83.2039L69.6013 83.4256L69.539 84.117C69.9276 83.6367 70.3945 83.4383 70.9396 83.5217C71.1095 83.5476 71.2652 83.595 71.4069 83.6638L71.1598 85.1365ZM73.7661 90.0505C72.9237 89.9216 72.2766 89.5582 71.8247 88.9602C71.3763 88.3628 71.2179 87.634 71.3495 86.7739L71.3722 86.6252C71.4605 86.0483 71.6508 85.5503 71.9431 85.1314C72.2359 84.7089 72.6045 84.4066 73.0489 84.2247C73.4974 84.0397 73.9836 83.9873 74.5074 84.0674C75.2932 84.1876 75.873 84.5299 76.2467 85.0942C76.624 85.659 76.743 86.3962 76.6039 87.3059L76.5081 87.9324L72.8499 87.3729C72.8421 87.7556 72.9447 88.0792 73.1578 88.3437C73.3745 88.6086 73.674 88.7704 74.0562 88.8288C74.6473 88.9193 75.142 88.7758 75.5402 88.3984L76.165 89.3579C75.8852 89.6483 75.5347 89.8555 75.1137 89.9795C74.6931 90.0999 74.244 90.1236 73.7661 90.0505ZM74.3121 85.309C74.0077 85.2624 73.7442 85.3272 73.5217 85.5032C73.3027 85.6798 73.1374 85.9552 73.0258 86.3294L75.1602 86.6558L75.1789 86.5337C75.2238 86.1928 75.1718 85.9168 75.023 85.7057C74.8747 85.491 74.6377 85.3588 74.3121 85.309ZM79.6489 90.9503C78.8065 90.8215 78.1593 90.458 77.7074 89.86C77.2591 89.2626 77.1007 88.5338 77.2323 87.6737L77.255 87.525C77.3432 86.9481 77.5335 86.4501 77.8258 86.0312C78.1187 85.6087 78.4873 85.3065 78.9317 85.1245C79.3802 84.9395 79.8663 84.8871 80.3902 84.9673C81.176 85.0874 81.7557 85.4297 82.1295 85.994C82.5067 86.5588 82.6258 87.2961 82.4866 88.2058L82.3908 88.8323L78.7327 88.2727C78.7248 88.6555 78.8275 88.9791 79.0406 89.2435C79.2573 89.5085 79.5567 89.6702 79.939 89.7287C80.5301 89.8191 81.0248 89.6756 81.423 89.2982L82.0478 90.2577C81.7679 90.5482 81.4174 90.7554 80.9964 90.8793C80.5759 90.9997 80.1267 91.0234 79.6489 90.9503ZM80.1948 86.2088C79.8904 86.1623 79.627 86.227 79.4044 86.4031C79.1854 86.5797 79.0202 86.855 78.9086 87.2292L81.0429 87.5557L81.0616 87.4336C81.1065 87.0927 81.0546 86.8167 80.9057 86.6055C80.7574 86.3909 80.5205 86.2586 80.1948 86.2088Z" fill="#BA1F25"/>
</svg>
