<svg width="28" height="30" viewBox="0 0 28 30" fill="none" xmlns="http://www.w3.org/2000/svg">
<path d="M24.9463 12.9767L24.9385 12.9773C24.9594 12.8706 24.979 12.7634 24.9956 12.6551C25.7753 7.55969 21.3909 2.66144 15.2028 1.71453C9.01467 0.767614 3.36622 4.13062 2.58651 9.22606C2.56993 9.33438 2.55653 9.44256 2.54463 9.55065L2.53729 9.54768L2.53816 9.61151C2.47675 10.2104 2.48493 10.8145 2.56255 11.4115L2.71342 22.5501C2.72356 23.3015 3.06137 24.0132 3.64368 24.4881C4.85777 25.4783 7.31591 27.0442 11.2351 27.6439C15.1543 28.2437 17.9682 27.4845 19.4229 26.9027C20.1206 26.6236 20.6557 26.0455 20.8901 25.3316L24.365 14.7477C24.6176 14.2012 24.806 13.6273 24.9265 13.0374L24.9463 12.9767V12.9767Z" fill="#D1552A"/>
<path d="M7.08369 17.8861L10.2478 8.53421C10.4512 7.93294 11.1035 7.61043 11.7048 7.81387C12.306 8.01732 12.6285 8.66964 12.4251 9.27087L9.26103 18.6228C9.05758 19.2241 8.40525 19.5466 7.80403 19.3431C7.20275 19.1397 6.88025 18.4874 7.08369 17.8861V17.8861Z" fill="#E59328"/>
<path d="M11.6902 19.4145L13.0674 6.40243C13.1378 5.73675 13.7346 5.2542 14.4003 5.32464L14.9023 5.37776C15.568 5.4482 16.0505 6.04501 15.9801 6.71069L14.6029 19.7228C14.5324 20.3885 13.9356 20.871 13.2699 20.8006L12.768 20.7475C12.1023 20.677 11.6198 20.0802 11.6902 19.4145V19.4145Z" fill="#E59328"/>
<path d="M19.0286 17.0944L21.3285 6.32146C21.461 5.7007 22.0717 5.30491 22.6924 5.43743L22.9036 5.48253C23.5243 5.61505 23.9201 6.22569 23.7876 6.84646L21.4877 17.6194C21.3552 18.2402 20.7446 18.636 20.1238 18.5035L19.9127 18.4584C19.2919 18.3258 18.8961 17.7152 19.0286 17.0944Z" fill="#E59328"/>
<path d="M15.8859 19.2013L18.1858 8.42827C18.3183 7.80751 18.929 7.41172 19.5497 7.54424L19.7609 7.58934C20.3816 7.72186 20.7774 8.33251 20.6449 8.95327L18.345 19.7263C18.2125 20.347 17.6019 20.7428 16.9811 20.6103L16.77 20.5652C16.1492 20.4326 15.7534 19.822 15.8859 19.2013V19.2013Z" fill="#E59328"/>
<path d="M5.29639 13.7365L6.74579 3.97085C6.83898 3.34296 7.42348 2.90954 8.05137 3.00272C8.6792 3.0959 9.11268 3.68041 9.01949 4.3083L7.57014 14.074C7.47695 14.7019 6.89245 15.1353 6.26456 15.0421C5.63668 14.9489 5.20321 14.3644 5.29639 13.7365V13.7365Z" fill="#E59328"/>
<path d="M4.27146 15.2118L3.82187 5.34934C3.79299 4.71525 4.28355 4.17781 4.91765 4.14888C5.55174 4.11999 6.08918 4.61055 6.11806 5.24464L6.56765 15.1071C6.59653 15.7412 6.10597 16.2786 5.47187 16.3076C4.83784 16.3364 4.30035 15.8458 4.27146 15.2118V15.2118Z" fill="#FECB21"/>
<path d="M8.96186 19.4114L12.1259 10.0595C12.3294 9.45824 12.9817 9.13573 13.5829 9.33917C14.1842 9.54262 14.5067 10.1949 14.3033 10.7962L11.1392 20.1481C10.9358 20.7494 10.2834 21.0719 9.6822 20.8684C9.08093 20.665 8.75842 20.0127 8.96186 19.4114V19.4114Z" fill="#FECB21"/>
<path d="M14.5184 19.3373L15.5575 9.51941C15.6243 8.88817 16.1902 8.43063 16.8214 8.49748C17.4526 8.56427 17.9101 9.13014 17.8433 9.76133L16.8042 19.5792C16.7374 20.2104 16.1715 20.668 15.5403 20.6011C14.9091 20.5343 14.4516 19.9685 14.5184 19.3373V19.3373Z" fill="#FECB21"/>
<path d="M6.87505 15.343L9.3071 5.77456C9.46345 5.1594 10.0889 4.78746 10.7041 4.94381C11.3193 5.10017 11.6912 5.72564 11.5348 6.3408L9.10279 15.9092C8.94643 16.5244 8.32096 16.8963 7.7058 16.74C7.09059 16.5836 6.71864 15.9582 6.87505 15.343Z" fill="#FECB21"/>
<path d="M26.5019 7.52781L22.6457 16.6162C22.3978 17.2005 21.7231 17.4732 21.1388 17.2253C20.9443 17.1432 20.7764 17.0088 20.6536 16.8371C20.4433 17.0333 20.167 17.1433 19.8794 17.1451C19.2447 17.1499 18.7262 16.6392 18.7214 16.0045L18.6465 6.13216C18.6417 5.49743 19.1523 4.97896 19.787 4.97418C20.4218 4.96934 20.9402 5.48 20.945 6.11472L21.0094 14.5879L24.3859 6.62999C24.6338 6.04568 25.3086 5.77298 25.8929 6.02089C26.4771 6.26884 26.7498 6.9435 26.5019 7.52781V7.52781Z" fill="#FECB21"/>
<path d="M24.9648 12.8552C24.6893 14.6557 21.3494 14.7654 20.2992 14.755C20.2079 14.754 20.1182 14.7784 20.0401 14.8256C19.962 14.8728 19.8986 14.9408 19.8571 15.0221C19.3625 15.9926 17.3655 19.1596 12.6438 18.4371C8.081 17.7389 7.03229 14.3356 6.80295 13.1381C6.77885 13.0127 6.7212 12.8962 6.63615 12.801C6.5511 12.7057 6.44182 12.6353 6.31994 12.5973C5.20628 12.2476 2.29045 11.1601 2.55579 9.42618C2.53921 9.5345 2.52582 9.64268 2.51391 9.75076L2.50657 9.7478L2.50744 9.81163C2.44731 10.3982 2.45392 10.9897 2.52714 11.5748C2.53023 11.5994 2.53198 11.6241 2.53231 11.6487L2.67771 22.3839C2.69162 23.4102 3.17706 24.3759 3.99965 24.9899C5.31543 25.9719 7.6636 27.3022 11.2043 27.844C14.844 28.401 17.5304 27.786 19.0602 27.2294C19.9525 26.9048 20.6445 26.1858 20.9407 25.2836L24.3261 14.9723C24.3314 14.956 24.3377 14.9401 24.3449 14.9245C24.5921 14.385 24.7769 13.819 24.8957 13.2375L24.9156 13.1769L24.9077 13.1775C24.9287 13.0708 24.9483 12.9636 24.9648 12.8552V12.8552Z" fill="#FF6F1F"/>
</svg>
