<svg width="32" height="33" viewBox="0 0 32 33" fill="none" xmlns="http://www.w3.org/2000/svg">
<path d="M13.7385 10.7829C8.31061 9.95232 2.56817 11.1771 1.93982 15.2834C1.23965 19.8591 2.1466 28.2884 10.8559 29.6211C19.5652 30.9538 22.9513 23.1814 23.6515 18.6058C24.2798 14.4995 19.1664 11.6135 13.7385 10.7829V10.7829Z" fill="#E0E0E0"/>
<path d="M9.23991 11.727C8.3053 11.1596 7.62761 9.93413 7.69959 8.99132C7.85183 6.96005 9.09192 6.41521 9.35971 4.66515C9.58427 3.19765 9.45375 2.38944 9.02747 1.91376C8.90398 1.77593 8.88712 1.7337 8.90567 1.70389C8.93246 1.66601 8.93629 1.64095 9.14475 1.72648C9.99805 2.0786 11.3113 3.12843 11.0871 4.88284C10.8482 6.74925 9.76367 7.02406 9.30206 9.01965C9.13002 9.76291 8.9656 10.8222 9.35478 11.586C9.4034 11.6797 9.40728 11.7153 9.40152 11.7377C9.39208 11.769 9.3346 11.7788 9.23991 11.727V11.727Z" fill="#E0E0E0"/>
<path d="M14.3843 11.5604C13.4497 10.993 12.772 9.76754 12.844 8.82473C12.9962 6.79347 14.2363 6.24862 14.5041 4.49856C14.7287 3.03107 14.5981 2.22285 14.1719 1.74718C14.048 1.61162 14.0312 1.5694 14.0497 1.53959C14.0765 1.50171 14.0803 1.47664 14.2888 1.56218C15.1421 1.9143 16.4553 2.96413 16.2312 4.71853C15.9922 6.58494 14.9077 6.85976 14.4461 8.85534C14.2741 9.5986 14.1096 10.6579 14.4988 11.4217C14.5474 11.5154 14.5513 11.551 14.5456 11.5734C14.5365 11.6024 14.4786 11.6145 14.3843 11.5604V11.5604Z" fill="#E0E0E0"/>
<path d="M18.8637 13.3932C17.9291 12.8258 17.2514 11.6004 17.3234 10.6575C17.4756 8.62628 18.7157 8.08144 18.9835 6.33138C19.2081 4.86388 19.0775 4.05567 18.6513 3.57999C18.5278 3.44216 18.5109 3.39993 18.5295 3.37012C18.5562 3.33224 18.5601 3.30718 18.7685 3.39271C19.6218 3.74483 20.9351 4.79466 20.7109 6.54907C20.4719 8.41548 19.3875 8.69029 18.9258 10.6859C18.7538 11.4291 18.5894 12.4884 18.9786 13.2522C19.0272 13.346 19.0311 13.3815 19.0253 13.404C19.0159 13.4352 18.958 13.4473 18.8637 13.3932Z" fill="#E0E0E0"/>
<path d="M12.0515 21.8074C17.1069 22.581 21.5346 21.0554 21.9409 18.4C22.3472 15.7446 18.5784 12.9648 13.523 12.1912C8.4676 11.4176 4.03998 12.9432 3.63364 15.5986C3.2273 18.254 6.99612 21.0338 12.0515 21.8074Z" fill="#90A4AE"/>
<path d="M11.6881 24.1818C16.7435 24.9554 21.1712 23.4299 21.5775 20.7744C21.9838 18.119 18.215 15.3392 13.1596 14.5656C8.1042 13.792 3.67658 15.3176 3.27024 17.973C2.8639 20.6285 6.63271 23.4082 11.6881 24.1818Z" fill="#855C52"/>
<path d="M17.9636 27.0941C17.8132 27.0711 17.7269 27.0555 17.7204 27.0522C17.5578 27.0166 17.4038 26.9494 17.2673 26.8542C17.1307 26.759 17.0143 26.6379 16.9246 26.4976C16.8349 26.3574 16.7738 26.2009 16.7447 26.037C16.7156 25.8731 16.7192 25.7051 16.7551 25.5425C16.7903 25.3796 16.8573 25.2253 16.9523 25.0883C17.0474 24.9514 17.1685 24.8346 17.3089 24.7447C17.4492 24.6548 17.6059 24.5935 17.77 24.5643C17.9341 24.5352 18.1024 24.5388 18.2651 24.5749C18.3243 24.584 24.2517 25.5493 25.6825 22.4777C26.0227 21.7485 26.0874 21.173 25.8766 20.7676C25.691 20.4104 25.0745 19.761 23.042 19.4034C22.8779 19.3747 22.7211 19.314 22.5805 19.2246C22.4399 19.1353 22.3183 19.0191 22.2226 18.8828C22.127 18.7464 22.0591 18.5925 22.023 18.4299C21.9869 18.2673 21.9831 18.0992 22.012 17.9351C22.1339 17.2449 22.7961 16.7888 23.4802 16.9052C25.8493 17.319 27.4107 18.2249 28.1271 19.5938C28.7222 20.7343 28.6728 22.0631 27.9818 23.5455C25.8824 28.0446 19.3149 27.3008 17.9636 27.0941V27.0941Z" fill="#E0E0E0"/>
<path d="M11.1167 16.8976C11.4045 16.9066 11.7237 16.6803 11.6609 16.4351C11.6104 16.2315 11.3394 16.1434 11.1061 16.0984C10.1777 15.9167 8.51046 16.1443 7.06278 16.5827C6.86495 16.6411 6.50809 16.8244 6.43199 17.0016C6.34924 17.1918 6.50257 17.3785 6.70031 17.4275C6.89805 17.4764 7.12252 17.4268 7.3356 17.3754C9.10842 16.9611 9.67077 16.8676 11.1167 16.8976Z" fill="#BCAAA4"/>
</svg>
