<svg width="30" height="29" viewBox="0 0 30 29" fill="none" xmlns="http://www.w3.org/2000/svg">
<path d="M25.758 23.5074C25.5968 24.5607 24.8478 25.4318 23.8276 25.7393C21.9013 26.3198 18.304 26.9488 12.9054 26.1227C7.50682 25.2966 4.2622 23.6206 2.59772 22.4907C1.71607 21.8922 1.26185 20.837 1.42303 19.7837C1.65458 18.2705 3.06897 17.2315 4.58215 17.4631L23.4374 20.3483C24.9506 20.5799 25.9895 21.9942 25.758 23.5074Z" fill="#E59328"/>
<path d="M26.2909 19.3174C26.452 18.2641 25.9978 17.2089 25.1162 16.6104C23.4517 15.4804 20.2071 13.8044 14.8085 12.9783C9.40989 12.1522 5.81255 12.7812 3.88633 13.3617C2.86606 13.6692 2.11706 14.5403 1.95589 15.5936C1.95356 15.6088 1.95216 15.624 1.95011 15.6391C1.94752 15.6543 1.94433 15.6691 1.94201 15.6843C1.78083 16.7376 2.23505 17.7928 3.1167 18.3913C4.78118 19.5213 8.0258 21.1973 13.4244 22.0234C18.823 22.8495 22.4203 22.2204 24.3465 21.6399C25.3668 21.3325 26.1158 20.4614 26.277 19.4081C26.2793 19.3929 26.2807 19.3777 26.2828 19.3626C26.2853 19.3474 26.2885 19.3325 26.2909 19.3174V19.3174Z" fill="#7A2F18"/>
<path d="M13.9823 20.1896C20.1544 21.1341 25.4187 20.1954 25.7404 18.093C26.0621 15.9906 21.3195 13.5206 15.1474 12.5761C8.97527 11.6317 3.711 12.5704 3.38929 14.6728C3.06757 16.7752 7.81024 19.2452 13.9823 20.1896Z" fill="#DB1D1D"/>
<path d="M14.2041 18.7404C20.3762 19.6849 25.6405 18.7462 25.9622 16.6438C26.2839 14.5414 21.5413 12.0714 15.3692 11.1269C9.19707 10.1825 3.9328 11.1212 3.61109 13.2236C3.28938 15.326 8.03204 17.796 14.2041 18.7404Z" fill="#FF473E"/>
<path d="M27.267 14.3893C26.0982 13.4848 24.2739 12.9201 22.6326 12.6697C21.7373 12.5331 20.8116 12.4871 19.9304 12.531C19.244 12.5653 18.5672 12.6379 17.8691 12.6217C17.7537 12.6089 17.6387 12.5924 17.5242 12.5723C17.4474 12.548 17.3713 12.5216 17.2959 12.493C17.0267 12.3543 16.7743 12.2015 16.5156 12.0528C16.101 11.8145 15.6599 11.6104 15.2044 11.4118C14.4032 11.0624 13.5398 10.8222 12.6527 10.6324C10.9776 10.274 9.19595 10.2621 7.61469 10.5441C7.37098 10.5271 7.12612 10.5393 6.88533 10.5805C5.27286 10.8574 3.84859 11.4752 2.79011 12.2893C2.56533 12.4622 2.36133 12.6478 2.18058 12.8441C1.78658 13.2719 1.42352 13.7184 1.62757 14.2894C2.0096 15.3586 3.54784 15.9627 5.04907 15.9553C6.08454 15.9501 6.93992 15.6328 7.79617 15.3398C8.00934 15.276 8.22823 15.2216 8.4565 15.1811C8.48138 15.1797 8.36863 16.0774 8.39361 16.0764C8.57824 16.2295 8.74975 16.3892 8.93933 16.54C9.26225 16.797 9.61104 17.0504 9.98922 17.2722C10.7637 17.7265 11.7179 18.0875 12.6891 18.2301C13.6814 18.3758 14.6601 18.3128 15.5031 18.0358C15.9522 17.8882 16.3322 17.6912 16.6428 17.4279C16.7565 17.3316 16.8576 17.2293 16.9662 17.1312C17.039 17.1555 17.7139 16.5303 17.8969 16.6544C18.3512 16.99 18.7918 17.3371 19.2933 17.6408C19.9869 18.0607 20.8301 18.3782 21.7087 18.5142C23.4005 18.7762 25.095 18.3794 26.3855 17.8037C27.0514 17.5066 27.6976 17.0759 27.9496 16.5444C28.2833 15.8402 28.0861 15.0232 27.267 14.3893V14.3893ZM9.76176 12.8932C10.1268 12.8714 10.4927 12.8677 10.8582 12.8822C11.3585 12.927 11.8555 13.003 12.3463 13.1099C12.8036 13.2337 13.2461 13.3835 13.6716 13.5598C14.0053 13.7243 14.1769 14.807 14.4929 14.986C14.1126 15.1973 13.8729 15.4822 13.5485 15.7298C13.5328 15.7372 13.5167 15.7443 13.5006 15.7514C13.462 15.7604 13.4233 15.7686 13.3845 15.7762C13.3135 15.7796 13.2424 15.7813 13.1713 15.7812C13.082 15.77 12.993 15.7563 12.9044 15.7401C12.7747 15.7 12.6465 15.6552 12.5202 15.6056C12.3205 15.5039 12.1266 15.3912 11.9394 15.268C11.602 15.0047 11.3036 14.7223 10.9482 14.4679C10.5644 14.1933 10.255 13.0554 9.76176 12.8932V12.8932ZM23.5177 15.8471C23.2292 15.9327 22.9314 16.0039 22.62 16.0547C22.4837 16.0645 22.3471 16.069 22.2105 16.0683C22.1414 16.0595 22.0725 16.0491 22.0038 16.0371C21.9371 16.0158 21.871 15.9929 21.8054 15.9684C21.5819 15.852 21.3748 15.7226 21.1756 15.5866C20.9426 15.4135 20.7133 15.2363 20.4765 15.0644C20.8387 15.0465 21.2023 15.0378 21.5725 15.0501C22.0396 15.0926 22.5035 15.1639 22.9617 15.2636C23.3341 15.3651 23.7007 15.4868 24.0599 15.6281C23.887 15.7084 23.705 15.7803 23.5177 15.8471V15.8471Z" fill="#00B89C"/>
<path d="M6.73886 17.0439C6.20502 15.7878 5.16498 13.4637 3.79812 11.0007C1.28636 11.0416 21.3011 10.7385 21.3011 10.7385C26.6619 12.1461 26.9691 14.9519 26.7615 16.3267C26.6951 16.7668 26.2648 17.0551 25.8308 16.957C14.2846 14.3443 9.51548 16.2811 7.8734 17.3848C7.47333 17.6535 6.9274 17.4876 6.73886 17.0439V17.0439Z" fill="#FECB21"/>
<path d="M16.4948 1.95863C9.98261 0.962129 3.6979 4.20971 2.9398 9.1639C2.53559 11.8054 7.65547 14.7803 14.3754 15.8086C21.0954 16.8369 26.8706 15.5292 27.2748 12.8877C28.0114 8.07362 23.0069 2.95513 16.4948 1.95863V1.95863Z" fill="#E59328"/>
<path d="M7.99286 6.48521L8.33422 7.66988C8.35356 7.73703 8.34544 7.80911 8.31165 7.87026C8.27785 7.93142 8.22114 7.97665 8.15399 7.996C8.11497 8.00707 8.07394 8.00906 8.03403 8.00182C7.99412 7.99457 7.9564 7.97829 7.92376 7.95422L6.93459 7.21843C6.63355 6.99449 6.571 6.56891 6.79494 6.26787C7.01888 5.96684 7.44447 5.90429 7.7455 6.12823C7.86492 6.21683 7.95185 6.34228 7.99286 6.48521V6.48521ZM19.3572 4.2167C19.0561 3.99276 18.6305 4.0553 18.4066 4.35634C18.1827 4.65737 18.2452 5.08296 18.5462 5.3069L19.5354 6.04269C19.5681 6.06676 19.6058 6.08304 19.6457 6.09028C19.6856 6.09752 19.7266 6.09553 19.7656 6.08446C19.8328 6.06512 19.8895 6.01989 19.9233 5.95873C19.9571 5.89757 19.9652 5.82549 19.9459 5.75835L19.6045 4.57367C19.5635 4.43076 19.4765 4.30532 19.3572 4.2167ZM13.0911 4.65051C12.9249 4.31412 12.5174 4.17619 12.181 4.34246C11.8446 4.50868 11.7067 4.91614 11.873 5.25254L12.4192 6.35777C12.4373 6.39406 12.4635 6.42571 12.4957 6.45031C12.528 6.47491 12.5654 6.4918 12.6052 6.49968C12.6738 6.51298 12.7449 6.4985 12.8028 6.45941C12.8608 6.42032 12.9008 6.35982 12.9141 6.29122L13.149 5.08096C13.1775 4.93501 13.1571 4.78375 13.0911 4.65051V4.65051ZM24.9804 9.50815C25.1947 9.18211 25.1042 8.74407 24.7782 8.52978C24.4522 8.31543 24.0141 8.40599 23.7998 8.73198L23.2742 9.53141C23.2453 9.57545 23.2297 9.6269 23.2293 9.67959C23.2288 9.73228 23.2436 9.78398 23.2718 9.82849C23.3 9.87301 23.3404 9.90845 23.3882 9.93056C23.4361 9.95268 23.4893 9.96054 23.5414 9.9532L24.4888 9.81956C24.6816 9.79146 24.8649 9.68377 24.9804 9.50815V9.50815ZM14.5845 10.8199C14.2303 10.6961 13.8428 10.8827 13.7189 11.2369C13.5951 11.5911 13.7818 11.9786 14.1359 12.1025L15.2997 12.5094C15.338 12.5226 15.3789 12.5269 15.4191 12.5219C15.4594 12.5169 15.4979 12.5027 15.5319 12.4805C15.5607 12.4615 15.5856 12.4369 15.605 12.4082C15.6243 12.3796 15.6379 12.3474 15.6448 12.3135C15.6517 12.2796 15.6519 12.2446 15.6454 12.2107C15.6388 12.1767 15.6256 12.1443 15.6065 12.1155L14.9271 11.0868C14.8453 10.9626 14.7249 10.8688 14.5845 10.8199V10.8199ZM20.8856 12.8257C20.9821 13.1883 21.3542 13.404 21.7169 13.3076C22.0795 13.2111 22.2952 12.839 22.1987 12.4763L21.8817 11.285C21.8711 11.2458 21.8517 11.2096 21.8249 11.1791C21.7982 11.1486 21.7648 11.1246 21.7274 11.1091C21.6954 11.0959 21.6611 11.0891 21.6265 11.0892C21.5919 11.0893 21.5577 11.0962 21.5257 11.1095C21.4938 11.1228 21.4648 11.1422 21.4403 11.1668C21.4159 11.1913 21.3966 11.2204 21.3834 11.2524L20.9139 12.3923C20.8572 12.5298 20.8473 12.682 20.8856 12.8257V12.8257ZM10.8494 10.9484C10.949 10.5823 10.7329 10.2047 10.3668 10.1051C10.0006 10.0054 9.62308 10.2215 9.52345 10.5877L9.19616 11.7907C9.1879 11.8214 9.1863 11.8536 9.19146 11.885C9.19661 11.9164 9.20842 11.9463 9.22608 11.9728C9.2589 12.0217 9.3098 12.0555 9.36758 12.0669C9.42536 12.0783 9.48529 12.0662 9.53419 12.0334L10.5693 11.3385C10.7066 11.2464 10.806 11.1079 10.8494 10.9484V10.9484ZM17.3429 9.67773C17.6715 9.85887 18.0847 9.73936 18.2658 9.41079C18.447 9.08221 18.3275 8.66901 17.9989 8.48787L16.9192 7.89268C16.8836 7.87326 16.844 7.86224 16.8035 7.86047C16.763 7.85869 16.7226 7.86621 16.6855 7.88244C16.6216 7.9107 16.5715 7.96319 16.5463 8.02836C16.5211 8.09353 16.5228 8.16605 16.551 8.22996L17.0495 9.35753C17.1095 9.49359 17.2126 9.60611 17.3429 9.67773V9.67773Z" fill="#FFCD7D"/>
</svg>
