<svg width="30" height="29" viewBox="0 0 30 29" fill="none" xmlns="http://www.w3.org/2000/svg">
<path d="M25.7581 23.5074C25.5969 24.5607 24.848 25.4318 23.8277 25.7393C21.9015 26.3198 18.3041 26.9488 12.9055 26.1227C7.50694 25.2966 4.26232 23.6206 2.59784 22.4907C1.71619 21.8922 1.26197 20.837 1.42315 19.7837C1.6547 18.2705 3.06909 17.2315 4.58227 17.4631L23.4375 20.3483C24.9507 20.5799 25.9897 21.9942 25.7581 23.5074Z" fill="#E59328"/>
<path d="M26.291 19.3174C26.4522 18.2641 25.9979 17.2089 25.1163 16.6104C23.4518 15.4804 20.2072 13.8044 14.8086 12.9783C9.41001 12.1522 5.81267 12.7812 3.88645 13.3617C2.86618 13.6692 2.11719 14.5403 1.95601 15.5936C1.95368 15.6088 1.95228 15.624 1.95023 15.6391C1.94765 15.6543 1.94445 15.6691 1.94213 15.6843C1.78095 16.7376 2.23517 17.7928 3.11682 18.3913C4.7813 19.5213 8.02592 21.1973 13.4245 22.0234C18.8231 22.8495 22.4204 22.2204 24.3467 21.6399C25.3669 21.3325 26.1159 20.4614 26.2771 19.4081C26.2794 19.3929 26.2808 19.3777 26.2829 19.3626C26.2855 19.3474 26.2887 19.3325 26.291 19.3174Z" fill="#7A2F18"/>
<path d="M13.9825 20.1896C20.1545 21.1341 25.4188 20.1954 25.7405 18.093C26.0622 15.9906 21.3196 13.5206 15.1475 12.5761C8.97539 11.6317 3.71112 12.5704 3.38941 14.6728C3.0677 16.7752 7.81036 19.2452 13.9825 20.1896Z" fill="#DB1D1D"/>
<path d="M14.2043 18.7404C20.3763 19.6849 25.6406 18.7462 25.9623 16.6438C26.284 14.5414 21.5414 12.0714 15.3693 11.1269C9.19719 10.1825 3.93293 11.1212 3.61121 13.2236C3.2895 15.326 8.03216 17.796 14.2043 18.7404Z" fill="#FF473E"/>
<path d="M27.2672 14.3893C26.0983 13.4848 24.2741 12.9201 22.6327 12.6697C21.7374 12.5331 20.8117 12.4871 19.9305 12.531C19.2441 12.5653 18.5673 12.6379 17.8693 12.6217C17.7538 12.6089 17.6388 12.5924 17.5244 12.5723C17.4475 12.548 17.3714 12.5216 17.296 12.493C17.0269 12.3543 16.7745 12.2015 16.5157 12.0528C16.1011 11.8145 15.66 11.6104 15.2046 11.4118C14.4033 11.0624 13.5399 10.8222 12.6528 10.6324C10.9777 10.274 9.19607 10.2621 7.61481 10.5441C7.3711 10.5271 7.12625 10.5393 6.88545 10.5805C5.27299 10.8574 3.84871 11.4752 2.79023 12.2893C2.56545 12.4622 2.36145 12.6478 2.18071 12.8441C1.7867 13.2719 1.42364 13.7184 1.62769 14.2894C2.00972 15.3586 3.54796 15.9627 5.04919 15.9553C6.08466 15.9501 6.94004 15.6328 7.79629 15.3398C8.00946 15.276 8.22835 15.2216 8.45662 15.1811C8.48151 15.1797 8.36875 16.0774 8.39373 16.0764C8.57836 16.2295 8.74987 16.3892 8.93945 16.54C9.26237 16.797 9.61116 17.0504 9.98934 17.2722C10.7638 17.7265 11.718 18.0875 12.6892 18.2301C13.6816 18.3758 14.6602 18.3128 15.5032 18.0358C15.9523 17.8882 16.3323 17.6912 16.6429 17.4279C16.7566 17.3316 16.8577 17.2293 16.9663 17.1312C17.0392 17.1555 17.714 16.5303 17.897 16.6544C18.3513 16.99 18.7919 17.3371 19.2935 17.6408C19.987 18.0607 20.8302 18.3782 21.7089 18.5142C23.4006 18.7762 25.0952 18.3794 26.3856 17.8037C27.0516 17.5066 27.6977 17.0759 27.9497 16.5444C28.2835 15.8402 28.0862 15.0232 27.2672 14.3893ZM9.76188 12.8932C10.1269 12.8714 10.4929 12.8677 10.8583 12.8822C11.3586 12.927 11.8557 13.003 12.3465 13.1099C12.8037 13.2337 13.2462 13.3835 13.6717 13.5598C14.0055 13.7243 14.177 14.807 14.4931 14.986C14.1128 15.1973 13.8731 15.4822 13.5486 15.7298C13.5329 15.7372 13.5168 15.7443 13.5007 15.7514C13.4622 15.7604 13.4234 15.7686 13.3846 15.7762C13.3136 15.7796 13.2425 15.7813 13.1715 15.7812C13.0821 15.77 12.9931 15.7563 12.9045 15.7401C12.7748 15.7 12.6466 15.6552 12.5203 15.6056C12.3206 15.5039 12.1267 15.3912 11.9395 15.268C11.6022 15.0047 11.3037 14.7223 10.9483 14.4679C10.5645 14.1933 10.2551 13.0554 9.76188 12.8932ZM23.5178 15.8471C23.2293 15.9327 22.9315 16.0039 22.6201 16.0547C22.4839 16.0645 22.3473 16.069 22.2106 16.0683C22.1415 16.0595 22.0726 16.0491 22.004 16.0371C21.9373 16.0158 21.8711 15.9929 21.8055 15.9684C21.5821 15.852 21.3749 15.7226 21.1758 15.5866C20.9427 15.4135 20.7134 15.2363 20.4767 15.0644C20.8388 15.0465 21.2024 15.0378 21.5727 15.0501C22.0397 15.0926 22.5036 15.1639 22.9619 15.2636C23.3342 15.3651 23.7008 15.4868 24.06 15.6281C23.8871 15.7084 23.7051 15.7803 23.5178 15.8471Z" fill="#00B89C"/>
<path d="M6.73898 17.0439C6.20515 15.7878 5.1651 13.4637 3.79824 11.0007C1.28648 11.0416 21.3012 10.7385 21.3012 10.7385C26.662 12.1461 26.9692 14.9519 26.7617 16.3267C26.6952 16.7668 26.265 17.0551 25.8309 16.957C14.2847 14.3443 9.51561 16.2811 7.87352 17.3848C7.47345 17.6535 6.92752 17.4876 6.73898 17.0439Z" fill="#FECB21"/>
<path d="M16.4949 1.95863C9.98273 0.962129 3.69802 4.20971 2.93992 9.1639C2.53572 11.8054 7.65559 14.7803 14.3755 15.8086C21.0955 16.8369 26.8707 15.5292 27.2749 12.8877C28.0115 8.07362 23.007 2.95513 16.4949 1.95863Z" fill="#E59328"/>
<path d="M7.99298 6.48521L8.33434 7.66988C8.35369 7.73703 8.34557 7.80911 8.31177 7.87026C8.27797 7.93142 8.22126 7.97665 8.15412 7.996C8.1151 8.00707 8.07406 8.00906 8.03415 8.00182C7.99425 7.99457 7.95653 7.97829 7.92388 7.95422L6.93471 7.21843C6.63368 6.99449 6.57113 6.56891 6.79507 6.26787C7.01901 5.96684 7.44459 5.90429 7.74563 6.12823C7.86504 6.21683 7.95197 6.34228 7.99298 6.48521ZM19.3573 4.2167C19.0562 3.99276 18.6307 4.0553 18.4067 4.35634C18.1828 4.65737 18.2453 5.08296 18.5464 5.3069L19.5355 6.04269C19.5682 6.06676 19.6059 6.08304 19.6458 6.09028C19.6857 6.09752 19.7267 6.09553 19.7658 6.08446C19.8329 6.06512 19.8896 6.01989 19.9234 5.95873C19.9572 5.89757 19.9653 5.82549 19.946 5.75835L19.6046 4.57367C19.5636 4.43076 19.4767 4.30532 19.3573 4.2167ZM13.0912 4.65051C12.925 4.31412 12.5176 4.17619 12.1812 4.34246C11.8448 4.50868 11.7068 4.91614 11.8731 5.25254L12.4193 6.35777C12.4374 6.39406 12.4636 6.42571 12.4959 6.45031C12.5281 6.47491 12.5656 6.4918 12.6053 6.49968C12.6739 6.51298 12.745 6.4985 12.803 6.45941C12.8609 6.42032 12.9009 6.35982 12.9142 6.29122L13.1491 5.08096C13.1776 4.93501 13.1572 4.78375 13.0912 4.65051ZM24.9805 9.50815C25.1949 9.18211 25.1043 8.74407 24.7783 8.52978C24.4523 8.31543 24.0142 8.40599 23.7999 8.73198L23.2744 9.53141C23.2454 9.57545 23.2298 9.6269 23.2294 9.67959C23.2289 9.73228 23.2437 9.78398 23.2719 9.82849C23.3001 9.87301 23.3405 9.90845 23.3884 9.93056C23.4362 9.95268 23.4894 9.96054 23.5416 9.9532L24.4889 9.81956C24.6818 9.79146 24.865 9.68377 24.9805 9.50815ZM14.5846 10.8199C14.2304 10.6961 13.8429 10.8827 13.719 11.2369C13.5952 11.5911 13.7819 11.9786 14.1361 12.1025L15.2998 12.5094C15.3382 12.5226 15.379 12.5269 15.4193 12.5219C15.4595 12.5169 15.4981 12.5027 15.532 12.4805C15.5609 12.4615 15.5857 12.4369 15.6051 12.4082C15.6245 12.3796 15.638 12.3474 15.6449 12.3135C15.6519 12.2796 15.652 12.2446 15.6455 12.2107C15.6389 12.1767 15.6257 12.1443 15.6066 12.1155L14.9272 11.0868C14.8454 10.9626 14.725 10.8688 14.5846 10.8199ZM20.8858 12.8257C20.9822 13.1883 21.3544 13.404 21.717 13.3076C22.0796 13.2111 22.2953 12.839 22.1988 12.4763L21.8818 11.285C21.8712 11.2458 21.8518 11.2096 21.8251 11.1791C21.7983 11.1486 21.7649 11.1246 21.7275 11.1091C21.6955 11.0959 21.6612 11.0891 21.6266 11.0892C21.592 11.0893 21.5578 11.0962 21.5258 11.1095C21.4939 11.1228 21.4649 11.1422 21.4405 11.1668C21.4161 11.1913 21.3967 11.2204 21.3835 11.2524L20.914 12.3923C20.8573 12.5298 20.8474 12.682 20.8858 12.8257ZM10.8495 10.9484C10.9491 10.5823 10.7331 10.2047 10.3669 10.1051C10.0008 10.0054 9.6232 10.2215 9.52357 10.5877L9.19628 11.7907C9.18802 11.8214 9.18642 11.8536 9.19158 11.885C9.19674 11.9164 9.20854 11.9463 9.2262 11.9728C9.25903 12.0217 9.30993 12.0555 9.36771 12.0669C9.42549 12.0783 9.48542 12.0662 9.53432 12.0334L10.5695 11.3385C10.7067 11.2464 10.8061 11.1079 10.8495 10.9484ZM17.343 9.67773C17.6716 9.85887 18.0848 9.73936 18.266 9.41079C18.4471 9.08221 18.3276 8.66901 17.999 8.48787L16.9193 7.89268C16.8837 7.87326 16.8442 7.86224 16.8037 7.86047C16.7631 7.85869 16.7228 7.86621 16.6856 7.88244C16.6217 7.9107 16.5716 7.96319 16.5464 8.02836C16.5212 8.09353 16.5229 8.16605 16.5512 8.22996L17.0496 9.35753C17.1096 9.49359 17.2127 9.60611 17.343 9.67773Z" fill="#FFCD7D"/>
</svg>
