<svg xmlns="http://www.w3.org/2000/svg" width="37" height="17" fill="none" viewBox="0 0 37 17">
    <path fill="#000" fill-rule="evenodd" d="M6.76 2.087c-.433.547-1.127.979-1.82.917-.088-.74.252-1.525.65-2.01C6.023.43 6.782.03 7.396 0c.073.77-.21 1.525-.636 2.087zm.63 1.064c-.612-.038-1.17.196-1.62.384-.29.121-.536.224-.722.224-.21 0-.466-.108-.753-.23-.376-.159-.806-.34-1.257-.332-1.033.015-1.994.64-2.522 1.633-1.084 1.987-.282 4.93.766 6.547.513.801 1.128 1.68 1.937 1.648.356-.014.612-.13.878-.25.305-.138.622-.281 1.117-.281.478 0 .781.14 1.072.274.277.127.543.25.937.242.839-.015 1.366-.801 1.88-1.602.553-.86.796-1.699.833-1.826l.005-.015-.02-.01c-.185-.09-1.6-.78-1.614-2.632C8.294 5.371 9.43 4.584 9.608 4.46l.022-.015C8.907 3.305 7.78 3.18 7.39 3.15zm5.803 9.774V.917h4.228c2.183 0 3.707 1.602 3.707 3.943 0 2.342-1.553 3.96-3.765 3.96h-2.421v4.105h-1.75zm1.75-10.437h2.016c1.517 0 2.385.863 2.385 2.38 0 1.518-.868 2.388-2.393 2.388h-2.009V2.488zm11.96 8.997c-.462.94-1.481 1.533-2.58 1.533-1.626 0-2.76-1.033-2.76-2.588 0-1.541 1.098-2.427 3.129-2.558l2.183-.138V7.07c0-.978-.6-1.51-1.67-1.51-.882 0-1.525.486-1.655 1.225h-1.576c.051-1.556 1.424-2.688 3.282-2.688 2.002 0 3.303 1.117 3.303 2.85v5.977h-1.62v-1.44h-.035zm-2.11.107c-.933 0-1.525-.477-1.525-1.209 0-.755.57-1.194 1.662-1.263l1.944-.131v.678c0 1.124-.896 1.925-2.081 1.925zm9.135 1.803c-.7 2.103-1.503 2.796-3.209 2.796-.13 0-.563-.015-.665-.046v-1.44c.109.015.376.03.514.03.773 0 1.207-.346 1.474-1.247l.159-.532-2.963-8.742h1.828l2.06 7.094h.036l2.06-7.094H37l-3.072 9.181z" clip-rule="evenodd"/>
</svg>
