<svg width="147" height="158" viewBox="0 0 147 158" fill="none" xmlns="http://www.w3.org/2000/svg">
<rect x="21.1323" width="126.541" height="139.761" rx="3.77733" transform="rotate(8.69669 21.1323 0)" fill="#FFBB0B"/>
<rect x="25.4587" y="21.6788" width="35.8846" height="35.8846" rx="3.77733" transform="rotate(8.69669 25.4587 21.6788)" fill="white"/>
<rect x="62.7977" y="27.3902" width="35.8846" height="35.8846" rx="3.77733" transform="rotate(8.69669 62.7977 27.3902)" fill="white"/>
<rect x="100.137" y="33.1017" width="35.8846" height="35.8846" rx="3.77733" transform="rotate(8.69669 100.137 33.1017)" fill="white"/>
<rect x="14.0359" y="96.3568" width="35.8846" height="35.8846" rx="3.77733" transform="rotate(8.69669 14.0359 96.3568)" fill="white"/>
<rect x="51.3749" y="102.068" width="35.8846" height="35.8846" rx="3.77733" transform="rotate(8.69669 51.3749 102.068)" fill="white"/>
<rect x="88.7139" y="107.78" width="35.8846" height="35.8846" rx="3.77733" transform="rotate(8.69669 88.7139 107.78)" fill="white"/>
<rect x="19.7473" y="59.0178" width="35.8846" height="35.8846" rx="3.77733" transform="rotate(8.69669 19.7473 59.0178)" fill="white"/>
<rect x="57.0863" y="64.7292" width="35.8846" height="35.8846" rx="3.77733" transform="rotate(8.69669 57.0863 64.7292)" fill="white"/>
<rect x="94.4254" y="70.4407" width="35.8846" height="35.8846" rx="3.77733" transform="rotate(8.69669 94.4254 70.4407)" fill="white"/>
<path d="M52.1329 15.8835L53.8978 13.2158L55.333 13.4354L52.6203 17.176L52.267 19.4864L50.9324 19.2823L51.2858 16.9719L49.8153 12.5914L51.2549 12.8116L52.1329 15.8835ZM54.7404 17.3973C54.8123 16.9277 54.9667 16.5229 55.2038 16.183C55.4409 15.8431 55.744 15.5984 56.1132 15.4489C56.4853 15.2998 56.896 15.2597 57.3452 15.3284C57.984 15.4261 58.4748 15.7012 58.8176 16.1537C59.1633 16.6066 59.3082 17.1721 59.2522 17.8501L59.2114 18.1753C59.1003 18.9016 58.8084 19.4541 58.3355 19.8325C57.8631 20.2081 57.2856 20.3436 56.603 20.2392C55.9204 20.1348 55.4083 19.8326 55.0669 19.3325C54.7283 18.8329 54.6166 18.2068 54.7317 17.4542L54.7404 17.3973ZM55.9909 17.6827C55.9222 18.1319 55.9542 18.4891 56.0868 18.7541C56.2198 19.0163 56.4439 19.1715 56.7589 19.2197C57.0652 19.2665 57.3223 19.1864 57.5301 18.9794C57.7383 18.7694 57.8819 18.4063 57.9609 17.89C58.0283 17.4495 57.9945 17.095 57.8594 16.8266C57.7243 16.5581 57.5007 16.4 57.1886 16.3523C56.8794 16.305 56.6216 16.3895 56.4154 16.6057C56.2096 16.819 56.0681 17.178 55.9909 17.6827ZM62.5446 20.5659C62.1745 20.8974 61.7138 21.021 61.1624 20.9366C60.6548 20.859 60.2892 20.6538 60.0654 20.321C59.8446 19.9887 59.7743 19.5406 59.8546 18.9767L60.3291 15.8744L61.5937 16.0678L61.1259 19.1264C61.0504 19.6194 61.2374 19.9002 61.6866 19.9689C62.1154 20.0345 62.4328 19.9308 62.6387 19.6578L63.1514 16.3061L64.4204 16.5002L63.6962 21.2346L62.506 21.0526L62.5446 20.5659ZM67.8533 18.2388C67.6848 18.1892 67.5349 18.1543 67.4036 18.1342C66.9252 18.061 66.5868 18.175 66.3885 18.476L65.9146 21.574L64.6501 21.3806L65.3743 16.6461L66.5688 16.8288L66.5175 17.3986C66.8378 17.0028 67.2225 16.8392 67.6718 16.908C67.8118 16.9294 67.9402 16.9684 68.0569 17.0251L67.8533 18.2388ZM70.2378 22.2353L71.2123 15.8643L73.4439 16.2056C74.2169 16.3239 74.7805 16.5624 75.1347 16.921C75.4892 17.2768 75.6228 17.7405 75.5353 18.3123C75.4876 18.6244 75.3652 18.8878 75.1682 19.1025C74.9716 19.3142 74.7219 19.4537 74.4191 19.5208C74.7333 19.6524 74.9648 19.8565 75.1135 20.133C75.2652 20.41 75.3136 20.7279 75.2587 21.0867C75.165 21.6993 74.8986 22.1332 74.4596 22.3884C74.0205 22.6437 73.4388 22.7189 72.7144 22.6141L70.2378 22.2353ZM71.9748 19.6619L71.7118 21.3815L72.8364 21.5535C73.1456 21.6008 73.3974 21.5647 73.5918 21.4452C73.7896 21.3232 73.9083 21.1324 73.948 20.8728C74.0373 20.2893 73.7807 19.9471 73.1782 19.8459L71.9748 19.6619ZM72.1167 18.7342L73.0881 18.8828C73.7521 18.9725 74.1236 18.7591 74.2026 18.2428C74.2467 17.954 74.1938 17.7339 74.0438 17.5826C73.8972 17.4288 73.643 17.3243 73.2813 17.2689L72.3624 17.1284L72.1167 18.7342ZM77.2126 23.3021L75.9437 23.108L76.6679 18.3736L77.9368 18.5677L77.2126 23.3021ZM76.7809 17.137C76.8099 16.9474 76.8965 16.8009 77.0407 16.6976C77.1878 16.5947 77.3707 16.56 77.5895 16.5935C77.8053 16.6265 77.9681 16.7141 78.0777 16.8562C78.1873 16.9984 78.2276 17.1643 78.1986 17.3539C78.1692 17.5464 78.0794 17.6939 77.9294 17.7963C77.7823 17.8992 77.6023 17.9344 77.3894 17.9018C77.1764 17.8692 77.0137 17.7816 76.9011 17.639C76.7915 17.4969 76.7514 17.3295 76.7809 17.137ZM80.1465 18.9057L80.1022 19.4587C80.5053 19.0874 80.9913 18.9453 81.5601 19.0323C82.0619 19.1091 82.4127 19.3135 82.6127 19.6456C82.8127 19.9777 82.8707 20.4374 82.7869 21.0246L82.319 24.0832L81.0544 23.8898L81.5176 20.8618C81.5587 20.5935 81.53 20.3906 81.4316 20.2531C81.3337 20.1127 81.149 20.0218 80.8777 19.9803C80.5219 19.9259 80.2317 20.0367 80.0074 20.3129L79.4967 23.6515L78.2321 23.4581L78.9563 18.7236L80.1465 18.9057ZM83.4653 21.8001C83.5764 21.0738 83.838 20.5152 84.2501 20.1245C84.665 19.7342 85.1657 19.5839 85.752 19.6735C86.2713 19.753 86.6481 19.9927 86.8824 20.3928L87.0032 19.9545L88.1496 20.1299L87.4495 24.7068C87.3861 25.121 87.2362 25.4668 86.9998 25.7441C86.7662 26.0218 86.4665 26.2148 86.1007 26.323C85.7348 26.4313 85.3229 26.4504 84.8649 26.3803C84.5178 26.3272 84.1901 26.2054 83.8819 26.015C83.5733 25.8275 83.3511 25.6114 83.2153 25.3667L83.8932 24.6823C84.1543 25.0834 84.5094 25.3184 84.9587 25.3871C85.2941 25.4384 85.569 25.3879 85.7834 25.2356C85.9973 25.0862 86.1295 24.8467 86.1799 24.5171L86.2187 24.2633C85.8766 24.5483 85.4678 24.6544 84.9923 24.5817C84.4235 24.4947 83.9965 24.2025 83.7113 23.7051C83.4295 23.2052 83.3449 22.5878 83.4573 21.8526L83.4653 21.8001ZM84.7158 22.0855C84.6503 22.5143 84.6848 22.8644 84.8194 23.1357C84.9545 23.4042 85.1722 23.5614 85.4727 23.6073C85.8578 23.6662 86.1555 23.564 86.366 23.3006L86.6705 21.3097C86.5455 20.995 86.2948 20.8089 85.9185 20.7514C85.6151 20.705 85.357 20.7923 85.144 21.0135C84.934 21.2352 84.7913 21.5925 84.7158 22.0855ZM88.5731 22.5725C88.6449 22.1028 88.7994 21.698 89.0365 21.3581C89.2735 21.0183 89.5767 20.7736 89.9458 20.624C90.3179 20.475 90.7286 20.4348 91.1778 20.5035C91.8167 20.6012 92.3075 20.8763 92.6503 21.3288C92.9959 21.7817 93.1408 22.3472 93.0849 23.0253L93.0441 23.3504C92.933 24.0768 92.641 24.6292 92.1681 25.0076C91.6957 25.3832 91.1182 25.5187 90.4356 25.4143C89.753 25.3099 89.241 25.0077 88.8995 24.5077C88.561 24.0081 88.4493 23.382 88.5644 22.6294L88.5731 22.5725ZM89.8236 22.8578C89.7549 23.307 89.7868 23.6642 89.9194 23.9293C90.0525 24.1914 90.2765 24.3466 90.5916 24.3948C90.8979 24.4417 91.1549 24.3616 91.3627 24.1545C91.571 23.9446 91.7146 23.5814 91.7936 23.0651C91.8609 22.6246 91.8271 22.2701 91.692 22.0017C91.5569 21.7332 91.3333 21.5751 91.0212 21.5274C90.712 21.4801 90.4543 21.5646 90.248 21.7808C90.0423 21.9941 89.9008 22.3531 89.8236 22.8578ZM101.109 24.7855C100.954 25.4635 100.618 25.9643 100.1 26.2881C99.5846 26.6123 98.9536 26.7173 98.2068 26.603C97.39 26.4781 96.7887 26.1055 96.403 25.4852C96.0206 24.8625 95.9028 24.0713 96.0496 23.1116L96.1091 22.7221C96.2028 22.1095 96.3933 21.5864 96.6806 21.1527C96.9678 20.7189 97.3302 20.4087 97.7678 20.2218C98.2087 20.0325 98.6947 19.9785 99.2256 20.0597C99.9607 20.1722 100.523 20.4596 100.912 20.9222C101.301 21.3847 101.476 21.9772 101.437 22.6997L100.124 22.4989C100.155 22.0827 100.085 21.7675 99.9151 21.5534C99.7482 21.3368 99.4635 21.1977 99.0609 21.1361C98.6234 21.0692 98.2711 21.1765 98.0041 21.4581C97.7405 21.7372 97.5554 22.206 97.4487 22.8643L97.3751 23.3457C97.2698 24.0341 97.2964 24.5531 97.4548 24.9028C97.6162 25.2529 97.9215 25.4623 98.3708 25.531C98.7763 25.593 99.0922 25.5473 99.3187 25.3939C99.5485 25.238 99.7077 24.9683 99.7962 24.5847L101.109 24.7855ZM104.307 27.4465C104.266 27.3238 104.245 27.1759 104.245 27.0027C103.886 27.2971 103.462 27.4069 102.972 27.3319C102.508 27.261 102.144 27.0679 101.878 26.7526C101.616 26.4379 101.516 26.0763 101.579 25.6679C101.655 25.1661 101.899 24.8094 102.311 24.5977C102.725 24.3865 103.284 24.3331 103.988 24.4378L104.57 24.5268L104.611 24.2555C104.645 24.0367 104.615 23.853 104.521 23.7043C104.43 23.5561 104.264 23.4634 104.022 23.4264C103.809 23.3938 103.633 23.4192 103.495 23.5026C103.36 23.5864 103.279 23.7173 103.251 23.8952L101.987 23.7018C102.029 23.4276 102.152 23.1867 102.357 22.9792C102.562 22.7717 102.829 22.626 103.158 22.542C103.488 22.4551 103.845 22.4412 104.23 22.5001C104.814 22.5893 105.254 22.8073 105.55 23.1542C105.85 23.4985 105.959 23.9362 105.878 24.4671L105.564 26.5193C105.498 26.969 105.509 27.3184 105.596 27.5676L105.584 27.642L104.307 27.4465ZM103.395 26.4071C103.582 26.4356 103.761 26.4211 103.931 26.3635C104.101 26.303 104.235 26.2086 104.332 26.0801L104.457 25.2663L103.984 25.194C103.351 25.0971 102.981 25.2644 102.873 25.6957L102.857 25.7694C102.833 25.927 102.869 26.0652 102.964 26.1843C103.059 26.3034 103.203 26.3776 103.395 26.4071ZM109.571 24.6201C109.402 24.5704 109.252 24.5355 109.121 24.5154C108.643 24.4423 108.304 24.5562 108.106 24.8572L107.632 27.9552L106.368 27.7618L107.092 23.0273L108.286 23.21L108.235 23.7798C108.555 23.384 108.94 23.2205 109.389 23.2892C109.529 23.3106 109.658 23.3496 109.774 23.4063L109.571 24.6201ZM109.724 25.8167C109.837 25.0786 110.091 24.5161 110.488 24.1289C110.887 23.7422 111.374 23.5928 111.949 23.6807C112.41 23.7512 112.764 23.9816 113.012 24.3717L113.382 21.9564L114.651 22.1505L113.623 28.8715L112.48 28.6968L112.496 28.1842C112.121 28.5298 111.685 28.6647 111.189 28.5889C110.632 28.5036 110.218 28.2164 109.946 27.727C109.678 27.2352 109.604 26.5985 109.724 25.8167ZM110.974 26.102C110.906 26.5454 110.932 26.8971 111.05 27.157C111.169 27.4169 111.375 27.5694 111.67 27.6145C112.061 27.6743 112.362 27.5516 112.572 27.2465L112.858 25.3781C112.751 25.0244 112.504 24.8179 112.116 24.7585C111.506 24.6653 111.125 25.1131 110.974 26.102Z" fill="black"/>
<path d="M66.6892 85.6263L63.631 85.1585L63.1478 88.3176L61.555 88.074L62.7374 80.3436L67.7707 81.1135L67.5733 82.4036L64.1329 81.8774L63.8275 83.8737L66.8857 84.3415L66.6892 85.6263ZM71.1598 85.1365C70.9553 85.0763 70.7734 85.0339 70.6142 85.0096C70.0337 84.9208 69.6231 85.059 69.3825 85.4243L68.8075 89.1833L67.2731 88.9486L68.1519 83.2039L69.6013 83.4256L69.539 84.117C69.9276 83.6367 70.3945 83.4383 70.9396 83.5217C71.1095 83.5476 71.2652 83.595 71.4069 83.6638L71.1598 85.1365ZM73.7661 90.0505C72.9237 89.9216 72.2766 89.5582 71.8247 88.9602C71.3763 88.3628 71.2179 87.634 71.3495 86.7739L71.3722 86.6252C71.4605 86.0483 71.6508 85.5503 71.9431 85.1314C72.2359 84.7089 72.6045 84.4066 73.0489 84.2247C73.4974 84.0397 73.9836 83.9873 74.5074 84.0674C75.2932 84.1876 75.873 84.5299 76.2467 85.0942C76.624 85.659 76.743 86.3962 76.6039 87.3059L76.5081 87.9324L72.8499 87.3729C72.8421 87.7556 72.9447 88.0792 73.1578 88.3437C73.3745 88.6086 73.674 88.7704 74.0562 88.8288C74.6473 88.9193 75.142 88.7758 75.5402 88.3984L76.165 89.3579C75.8852 89.6483 75.5347 89.8555 75.1137 89.9795C74.6931 90.0999 74.244 90.1236 73.7661 90.0505ZM74.3121 85.309C74.0077 85.2624 73.7442 85.3272 73.5217 85.5032C73.3027 85.6798 73.1374 85.9552 73.0258 86.3294L75.1602 86.6558L75.1789 86.5337C75.2238 86.1928 75.1718 85.9168 75.023 85.7057C74.8747 85.491 74.6377 85.3588 74.3121 85.309ZM79.6489 90.9503C78.8065 90.8215 78.1593 90.458 77.7074 89.86C77.2591 89.2626 77.1007 88.5338 77.2323 87.6737L77.255 87.525C77.3432 86.9481 77.5335 86.4501 77.8258 86.0312C78.1187 85.6087 78.4873 85.3065 78.9317 85.1245C79.3802 84.9395 79.8663 84.8871 80.3902 84.9673C81.176 85.0874 81.7557 85.4297 82.1295 85.994C82.5067 86.5588 82.6258 87.2961 82.4866 88.2058L82.3908 88.8323L78.7327 88.2727C78.7248 88.6555 78.8275 88.9791 79.0406 89.2435C79.2573 89.5085 79.5567 89.6702 79.939 89.7287C80.5301 89.8191 81.0248 89.6756 81.423 89.2982L82.0478 90.2577C81.7679 90.5482 81.4174 90.7554 80.9964 90.8793C80.5759 90.9997 80.1267 91.0234 79.6489 90.9503ZM80.1948 86.2088C79.8904 86.1623 79.627 86.227 79.4044 86.4031C79.1854 86.5797 79.0202 86.855 78.9086 87.2292L81.0429 87.5557L81.0616 87.4336C81.1065 87.0927 81.0546 86.8167 80.9057 86.6055C80.7574 86.3909 80.5205 86.2586 80.1948 86.2088Z" fill="#BA1F25"/>
<path d="M50.758 51.5074C50.5968 52.5607 49.8478 53.4318 48.8276 53.7393C46.9013 54.3198 43.304 54.9488 37.9054 54.1227C32.5068 53.2966 29.2622 51.6206 27.5977 50.4907C26.7161 49.8922 26.2618 48.837 26.423 47.7837C26.6546 46.2705 28.069 45.2315 29.5822 45.4631L48.4374 48.3483C49.9506 48.5799 50.9895 49.9942 50.758 51.5074Z" fill="#E59328"/>
<path d="M51.2909 47.3174C51.452 46.2641 50.9978 45.2089 50.1162 44.6104C48.4517 43.4804 45.2071 41.8044 39.8085 40.9783C34.4099 40.1522 30.8126 40.7812 28.8863 41.3617C27.8661 41.6692 27.1171 42.5403 26.9559 43.5936C26.9536 43.6088 26.9522 43.624 26.9501 43.6391C26.9475 43.6543 26.9443 43.6691 26.942 43.6843C26.7808 44.7376 27.235 45.7928 28.1167 46.3913C29.7812 47.5213 33.0258 49.1973 38.4244 50.0234C43.823 50.8495 47.4203 50.2204 49.3465 49.6399C50.3668 49.3325 51.1158 48.4614 51.277 47.4081C51.2793 47.3929 51.2807 47.3777 51.2828 47.3626C51.2853 47.3474 51.2885 47.3325 51.2909 47.3174Z" fill="#7A2F18"/>
<path d="M38.9823 48.1896C45.1544 49.1341 50.4187 48.1954 50.7404 46.093C51.0621 43.9906 46.3195 41.5206 40.1474 40.5761C33.9753 39.6317 28.711 40.5704 28.3893 42.6728C28.0676 44.7752 32.8102 47.2452 38.9823 48.1896Z" fill="#DB1D1D"/>
<path d="M39.2041 46.7404C45.3762 47.6849 50.6405 46.7462 50.9622 44.6438C51.2839 42.5414 46.5413 40.0714 40.3692 39.1269C34.1971 38.1825 28.9328 39.1212 28.6111 41.2236C28.2894 43.326 33.032 45.796 39.2041 46.7404Z" fill="#FF473E"/>
<path d="M52.267 42.3893C51.0982 41.4848 49.2739 40.9201 47.6326 40.6697C46.7373 40.5331 45.8116 40.4871 44.9304 40.531C44.244 40.5653 43.5672 40.6379 42.8691 40.6217C42.7537 40.6089 42.6387 40.5924 42.5242 40.5723C42.4474 40.548 42.3713 40.5216 42.2959 40.493C42.0267 40.3543 41.7743 40.2015 41.5156 40.0528C41.101 39.8145 40.6599 39.6104 40.2044 39.4118C39.4032 39.0624 38.5398 38.8222 37.6527 38.6324C35.9776 38.274 34.1959 38.2621 32.6147 38.5441C32.371 38.5271 32.1261 38.5393 31.8853 38.5805C30.2729 38.8574 28.8486 39.4752 27.7901 40.2893C27.5653 40.4622 27.3613 40.6478 27.1806 40.8441C26.7866 41.2719 26.4235 41.7184 26.6276 42.2894C27.0096 43.3586 28.5478 43.9627 30.0491 43.9553C31.0845 43.9501 31.9399 43.6328 32.7962 43.3398C33.0093 43.276 33.2282 43.2216 33.4565 43.1811C33.4814 43.1797 33.3686 44.0774 33.3936 44.0764C33.5782 44.2295 33.7498 44.3892 33.9393 44.54C34.2622 44.797 34.611 45.0504 34.9892 45.2722C35.7637 45.7265 36.7179 46.0875 37.6891 46.2301C38.6814 46.3758 39.6601 46.3128 40.5031 46.0358C40.9522 45.8882 41.3322 45.6912 41.6428 45.4279C41.7565 45.3316 41.8576 45.2293 41.9662 45.1312C42.039 45.1555 42.7139 44.5303 42.8969 44.6544C43.3512 44.99 43.7918 45.3371 44.2933 45.6408C44.9869 46.0607 45.8301 46.3782 46.7087 46.5142C48.4005 46.7762 50.095 46.3794 51.3855 45.8037C52.0514 45.5066 52.6976 45.0759 52.9496 44.5444C53.2833 43.8402 53.0861 43.0232 52.267 42.3893ZM34.7618 40.8932C35.1268 40.8714 35.4927 40.8677 35.8582 40.8822C36.3585 40.927 36.8555 41.003 37.3463 41.1099C37.8036 41.2337 38.2461 41.3835 38.6716 41.5598C39.0053 41.7243 39.1769 42.807 39.4929 42.986C39.1126 43.1973 38.8729 43.4822 38.5485 43.7298C38.5328 43.7372 38.5167 43.7443 38.5006 43.7514C38.462 43.7604 38.4233 43.7686 38.3845 43.7762C38.3135 43.7796 38.2424 43.7813 38.1713 43.7812C38.082 43.77 37.993 43.7563 37.9044 43.7401C37.7747 43.7 37.6465 43.6552 37.5202 43.6056C37.3205 43.5039 37.1266 43.3912 36.9394 43.268C36.602 43.0047 36.3036 42.7223 35.9482 42.4679C35.5644 42.1933 35.255 41.0554 34.7618 40.8932ZM48.5177 43.8471C48.2292 43.9327 47.9314 44.0039 47.62 44.0547C47.4837 44.0645 47.3471 44.069 47.2105 44.0683C47.1414 44.0595 47.0725 44.0491 47.0038 44.0371C46.9371 44.0158 46.871 43.9929 46.8054 43.9684C46.5819 43.852 46.3748 43.7226 46.1756 43.5866C45.9426 43.4135 45.7133 43.2363 45.4765 43.0644C45.8387 43.0465 46.2023 43.0378 46.5725 43.0501C47.0396 43.0926 47.5035 43.1639 47.9617 43.2636C48.3341 43.3651 48.7007 43.4868 49.0599 43.6281C48.887 43.7084 48.705 43.7803 48.5177 43.8471Z" fill="#00B89C"/>
<path d="M31.7389 45.0439C31.205 43.7878 30.165 41.4637 28.7981 39.0007C26.2864 39.0416 46.3011 38.7385 46.3011 38.7385C51.6619 40.1461 51.9691 42.9519 51.7615 44.3267C51.6951 44.7668 51.2648 45.0551 50.8308 44.957C39.2846 42.3443 34.5155 44.2811 32.8734 45.3848C32.4733 45.6535 31.9274 45.4876 31.7389 45.0439Z" fill="#FECB21"/>
<path d="M41.4948 29.9586C34.9826 28.9621 28.6979 32.2097 27.9398 37.1639C27.5356 39.8054 32.6555 42.7803 39.3754 43.8086C46.0954 44.8369 51.8706 43.5292 52.2748 40.8877C53.0114 36.0736 48.0069 30.9551 41.4948 29.9586Z" fill="#E59328"/>
<path d="M32.9929 34.4852L33.3342 35.6699C33.3536 35.737 33.3454 35.8091 33.3116 35.8703C33.2778 35.9314 33.2211 35.9767 33.154 35.996C33.115 36.0071 33.0739 36.0091 33.034 36.0018C32.9941 35.9946 32.9564 35.9783 32.9238 35.9542L31.9346 35.2184C31.6336 34.9945 31.571 34.5689 31.7949 34.2679C32.0189 33.9668 32.4445 33.9043 32.7455 34.1282C32.8649 34.2168 32.9518 34.3423 32.9929 34.4852ZM44.3572 32.2167C44.0561 31.9928 43.6305 32.0553 43.4066 32.3563C43.1827 32.6574 43.2452 33.083 43.5462 33.3069L44.5354 34.0427C44.5681 34.0668 44.6058 34.083 44.6457 34.0903C44.6856 34.0975 44.7266 34.0955 44.7656 34.0845C44.8328 34.0651 44.8895 34.0199 44.9233 33.9587C44.9571 33.8976 44.9652 33.8255 44.9459 33.7583L44.6045 32.5737C44.5635 32.4308 44.4765 32.3053 44.3572 32.2167ZM38.0911 32.6505C37.9249 32.3141 37.5174 32.1762 37.181 32.3425C36.8446 32.5087 36.7067 32.9161 36.873 33.2525L37.4192 34.3578C37.4373 34.3941 37.4635 34.4257 37.4957 34.4503C37.528 34.4749 37.5654 34.4918 37.6052 34.4997C37.6738 34.513 37.7449 34.4985 37.8028 34.4594C37.8608 34.4203 37.9008 34.3598 37.9141 34.2912L38.149 33.081C38.1775 32.935 38.1571 32.7838 38.0911 32.6505ZM49.9804 37.5081C50.1947 37.1821 50.1042 36.7441 49.7782 36.5298C49.4522 36.3154 49.0141 36.406 48.7998 36.732L48.2742 37.5314C48.2453 37.5754 48.2297 37.6269 48.2292 37.6796C48.2288 37.7323 48.2436 37.784 48.2718 37.8285C48.3 37.873 48.3404 37.9084 48.3882 37.9306C48.4361 37.9527 48.4893 37.9605 48.5414 37.9532L49.4888 37.8196C49.6816 37.7915 49.8649 37.6838 49.9804 37.5081ZM39.5845 38.8199C39.2303 38.6961 38.8428 38.8827 38.7189 39.2369C38.5951 39.5911 38.7818 39.9786 39.1359 40.1025L40.2997 40.5094C40.338 40.5226 40.3789 40.5269 40.4191 40.5219C40.4594 40.5169 40.4979 40.5027 40.5319 40.4805C40.5607 40.4615 40.5856 40.4369 40.605 40.4082C40.6243 40.3796 40.6379 40.3474 40.6448 40.3135C40.6517 40.2796 40.6519 40.2446 40.6454 40.2107C40.6388 40.1767 40.6256 40.1443 40.6065 40.1155L39.9271 39.0868C39.8453 38.9626 39.7249 38.8688 39.5845 38.8199ZM45.8856 40.8257C45.9821 41.1883 46.3542 41.404 46.7169 41.3076C47.0795 41.2111 47.2952 40.839 47.1987 40.4763L46.8817 39.285C46.8711 39.2458 46.8517 39.2096 46.8249 39.1791C46.7982 39.1486 46.7648 39.1246 46.7274 39.1091C46.6954 39.0959 46.6611 39.0891 46.6265 39.0892C46.5919 39.0893 46.5577 39.0962 46.5257 39.1095C46.4938 39.1228 46.4648 39.1422 46.4403 39.1668C46.4159 39.1913 46.3966 39.2204 46.3834 39.2524L45.9139 40.3923C45.8572 40.5298 45.8473 40.682 45.8856 40.8257ZM35.8494 38.9484C35.949 38.5823 35.7329 38.2047 35.3668 38.1051C35.0006 38.0054 34.6231 38.2215 34.5235 38.5877L34.1962 39.7907C34.1879 39.8214 34.1863 39.8536 34.1915 39.885C34.1966 39.9164 34.2084 39.9463 34.2261 39.9728C34.2589 40.0217 34.3098 40.0555 34.3676 40.0669C34.4254 40.0783 34.4853 40.0662 34.5342 40.0334L35.5693 39.3385C35.7066 39.2464 35.806 39.1079 35.8494 38.9484ZM42.3429 37.6777C42.6715 37.8589 43.0847 37.7394 43.2658 37.4108C43.447 37.0822 43.3275 36.669 42.9989 36.4879L41.9192 35.8927C41.8836 35.8733 41.844 35.8622 41.8035 35.8605C41.763 35.8587 41.7226 35.8662 41.6855 35.8824C41.6216 35.9107 41.5715 35.9632 41.5463 36.0284C41.5211 36.0935 41.5228 36.166 41.551 36.23L42.0495 37.3575C42.1095 37.4936 42.2126 37.6061 42.3429 37.6777Z" fill="#FFCD7D"/>
<path d="M119.758 100.507C119.597 101.561 118.848 102.432 117.828 102.739C115.901 103.32 112.304 103.949 106.906 103.123C101.507 102.297 98.2623 100.621 96.5978 99.4907C95.7162 98.8922 95.262 97.837 95.4231 96.7837C95.6547 95.2705 97.0691 94.2315 98.5823 94.4631L117.438 97.3483C118.951 97.5799 119.99 98.9942 119.758 100.507Z" fill="#E59328"/>
<path d="M120.291 96.3174C120.452 95.2641 119.998 94.2089 119.116 93.6104C117.452 92.4804 114.207 90.8044 108.809 89.9783C103.41 89.1522 99.8127 89.7812 97.8865 90.3617C96.8662 90.6692 96.1172 91.5403 95.956 92.5936C95.9537 92.6088 95.9523 92.624 95.9502 92.6391C95.9476 92.6543 95.9444 92.6691 95.9421 92.6843C95.781 93.7376 96.2352 94.7928 97.1168 95.3913C98.7813 96.5213 102.026 98.1973 107.425 99.0234C112.823 99.8495 116.42 99.2204 118.347 98.6399C119.367 98.3325 120.116 97.4614 120.277 96.4081C120.279 96.3929 120.281 96.3777 120.283 96.3626C120.285 96.3474 120.289 96.3325 120.291 96.3174Z" fill="#7A2F18"/>
<path d="M107.982 97.1896C114.155 98.1341 119.419 97.1954 119.741 95.093C120.062 92.9906 115.32 90.5206 109.147 89.5761C102.975 88.6317 97.7111 89.5704 97.3894 91.6728C97.0677 93.7752 101.81 96.2452 107.982 97.1896Z" fill="#DB1D1D"/>
<path d="M108.204 95.7404C114.376 96.6849 119.641 95.7462 119.962 93.6438C120.284 91.5414 115.541 89.0714 109.369 88.1269C103.197 87.1825 97.9329 88.1212 97.6112 90.2236C97.2895 92.326 102.032 94.796 108.204 95.7404Z" fill="#FF473E"/>
<path d="M121.267 91.3893C120.098 90.4848 118.274 89.9201 116.633 89.6697C115.737 89.5331 114.812 89.4871 113.931 89.531C113.244 89.5653 112.567 89.6379 111.869 89.6217C111.754 89.6089 111.639 89.5924 111.524 89.5723C111.448 89.548 111.371 89.5216 111.296 89.493C111.027 89.3543 110.774 89.2015 110.516 89.0528C110.101 88.8145 109.66 88.6104 109.205 88.4118C108.403 88.0624 107.54 87.8222 106.653 87.6324C104.978 87.274 103.196 87.2621 101.615 87.5441C101.371 87.5271 101.126 87.5393 100.885 87.5805C99.273 87.8574 97.8487 88.4752 96.7902 89.2893C96.5655 89.4622 96.3615 89.6478 96.1807 89.8441C95.7867 90.2719 95.4236 90.7184 95.6277 91.2894C96.0097 92.3586 97.548 92.9627 99.0492 92.9553C100.085 92.9501 100.94 92.6328 101.796 92.3398C102.009 92.276 102.228 92.2216 102.457 92.1811C102.482 92.1797 102.369 93.0774 102.394 93.0764C102.578 93.2295 102.75 93.3892 102.939 93.54C103.262 93.797 103.611 94.0504 103.989 94.2722C104.764 94.7265 105.718 95.0875 106.689 95.2301C107.682 95.3758 108.66 95.3128 109.503 95.0358C109.952 94.8882 110.332 94.6912 110.643 94.4279C110.757 94.3316 110.858 94.2293 110.966 94.1312C111.039 94.1555 111.714 93.5303 111.897 93.6544C112.351 93.99 112.792 94.3371 113.293 94.6408C113.987 95.0607 114.83 95.3782 115.709 95.5142C117.401 95.7762 119.095 95.3794 120.386 94.8037C121.052 94.5066 121.698 94.0759 121.95 93.5444C122.283 92.8402 122.086 92.0232 121.267 91.3893ZM103.762 89.8932C104.127 89.8714 104.493 89.8677 104.858 89.8822C105.359 89.927 105.856 90.003 106.346 90.1099C106.804 90.2337 107.246 90.3835 107.672 90.5598C108.005 90.7243 108.177 91.807 108.493 91.986C108.113 92.1973 107.873 92.4822 107.549 92.7298C107.533 92.7372 107.517 92.7443 107.501 92.7514C107.462 92.7604 107.423 92.7686 107.385 92.7762C107.314 92.7796 107.243 92.7813 107.171 92.7812C107.082 92.77 106.993 92.7563 106.905 92.7401C106.775 92.7 106.647 92.6552 106.52 92.6056C106.321 92.5039 106.127 92.3912 105.94 92.268C105.602 92.0047 105.304 91.7223 104.948 91.4679C104.565 91.1933 104.255 90.0554 103.762 89.8932ZM117.518 92.8471C117.229 92.9327 116.932 93.0039 116.62 93.0547C116.484 93.0645 116.347 93.069 116.211 93.0683C116.142 93.0595 116.073 93.0491 116.004 93.0371C115.937 93.0158 115.871 92.9929 115.806 92.9684C115.582 92.852 115.375 92.7226 115.176 92.5866C114.943 92.4135 114.713 92.2363 114.477 92.0644C114.839 92.0465 115.202 92.0378 115.573 92.0501C116.04 92.0926 116.504 92.1639 116.962 92.2636C117.334 92.3651 117.701 92.4868 118.06 92.6281C117.887 92.7084 117.705 92.7803 117.518 92.8471Z" fill="#00B89C"/>
<path d="M100.739 94.0439C100.205 92.7878 99.1651 90.4637 97.7982 88.0007C95.2865 88.0416 115.301 87.7385 115.301 87.7385C120.662 89.1461 120.969 91.9519 120.762 93.3267C120.695 93.7668 120.265 94.0551 119.831 93.957C108.285 91.3443 103.516 93.2811 101.874 94.3848C101.473 94.6535 100.928 94.4876 100.739 94.0439Z" fill="#FECB21"/>
<path d="M110.495 78.9586C103.983 77.9621 97.698 81.2097 96.9399 86.1639C96.5357 88.8054 101.656 91.7803 108.376 92.8086C115.095 93.8369 120.871 92.5292 121.275 89.8877C122.012 85.0736 117.007 79.9551 110.495 78.9586Z" fill="#E59328"/>
<path d="M101.993 83.4852L102.334 84.6699C102.354 84.737 102.346 84.8091 102.312 84.8703C102.278 84.9314 102.221 84.9767 102.154 84.996C102.115 85.0071 102.074 85.0091 102.034 85.0018C101.994 84.9946 101.957 84.9783 101.924 84.9542L100.935 84.2184C100.634 83.9945 100.571 83.5689 100.795 83.2679C101.019 82.9668 101.445 82.9043 101.746 83.1282C101.865 83.2168 101.952 83.3423 101.993 83.4852ZM113.357 81.2167C113.056 80.9928 112.631 81.0553 112.407 81.3563C112.183 81.6574 112.245 82.083 112.546 82.3069L113.536 83.0427C113.568 83.0668 113.606 83.083 113.646 83.0903C113.686 83.0975 113.727 83.0955 113.766 83.0845C113.833 83.0651 113.89 83.0199 113.923 82.9587C113.957 82.8976 113.965 82.8255 113.946 82.7583L113.605 81.5737C113.564 81.4308 113.477 81.3053 113.357 81.2167ZM107.091 81.6505C106.925 81.3141 106.518 81.1762 106.181 81.3425C105.845 81.5087 105.707 81.9161 105.873 82.2525L106.419 83.3578C106.437 83.3941 106.464 83.4257 106.496 83.4503C106.528 83.4749 106.566 83.4918 106.605 83.4997C106.674 83.513 106.745 83.4985 106.803 83.4594C106.861 83.4203 106.901 83.3598 106.914 83.2912L107.149 82.081C107.178 81.935 107.157 81.7838 107.091 81.6505ZM118.981 86.5081C119.195 86.1821 119.104 85.7441 118.778 85.5298C118.452 85.3154 118.014 85.406 117.8 85.732L117.274 86.5314C117.245 86.5754 117.23 86.6269 117.229 86.6796C117.229 86.7323 117.244 86.784 117.272 86.8285C117.3 86.873 117.341 86.9084 117.388 86.9306C117.436 86.9527 117.489 86.9605 117.542 86.9532L118.489 86.8196C118.682 86.7915 118.865 86.6838 118.981 86.5081ZM108.585 87.8199C108.23 87.6961 107.843 87.8827 107.719 88.2369C107.595 88.5911 107.782 88.9786 108.136 89.1025L109.3 89.5094C109.338 89.5226 109.379 89.5269 109.419 89.5219C109.459 89.5169 109.498 89.5027 109.532 89.4805C109.561 89.4615 109.586 89.4369 109.605 89.4082C109.624 89.3796 109.638 89.3474 109.645 89.3135C109.652 89.2796 109.652 89.2446 109.645 89.2107C109.639 89.1767 109.626 89.1443 109.607 89.1155L108.927 88.0868C108.845 87.9626 108.725 87.8688 108.585 87.8199ZM114.886 89.8257C114.982 90.1883 115.354 90.404 115.717 90.3076C116.08 90.2111 116.295 89.839 116.199 89.4763L115.882 88.285C115.871 88.2458 115.852 88.2096 115.825 88.1791C115.798 88.1486 115.765 88.1246 115.728 88.1091C115.696 88.0959 115.661 88.0891 115.627 88.0892C115.592 88.0893 115.558 88.0962 115.526 88.1095C115.494 88.1228 115.465 88.1422 115.44 88.1668C115.416 88.1913 115.397 88.2204 115.384 88.2524L114.914 89.3923C114.857 89.5298 114.847 89.682 114.886 89.8257ZM104.849 87.9484C104.949 87.5823 104.733 87.2047 104.367 87.1051C104.001 87.0054 103.623 87.2215 103.524 87.5877L103.196 88.7907C103.188 88.8214 103.186 88.8536 103.192 88.885C103.197 88.9164 103.209 88.9463 103.226 88.9728C103.259 89.0217 103.31 89.0555 103.368 89.0669C103.425 89.0783 103.485 89.0662 103.534 89.0334L104.569 88.3385C104.707 88.2464 104.806 88.1079 104.849 87.9484ZM111.343 86.6777C111.672 86.8589 112.085 86.7394 112.266 86.4108C112.447 86.0822 112.328 85.669 111.999 85.4879L110.919 84.8927C110.884 84.8733 110.844 84.8622 110.804 84.8605C110.763 84.8587 110.723 84.8662 110.686 84.8824C110.622 84.9107 110.572 84.9632 110.546 85.0284C110.521 85.0935 110.523 85.166 110.551 85.23L111.05 86.3575C111.11 86.4936 111.213 86.6061 111.343 86.6777Z" fill="#FFCD7D"/>
<path d="M76.7581 132.507C76.5969 133.561 75.848 134.432 74.8277 134.739C72.9015 135.32 69.3041 135.949 63.9055 135.123C58.5069 134.297 55.2623 132.621 53.5978 131.491C52.7162 130.892 52.262 129.837 52.4231 128.784C52.6547 127.27 54.0691 126.232 55.5823 126.463L74.4375 129.348C75.9507 129.58 76.9897 130.994 76.7581 132.507Z" fill="#E59328"/>
<path d="M77.291 128.317C77.4522 127.264 76.9979 126.209 76.1163 125.61C74.4518 124.48 71.2072 122.804 65.8086 121.978C60.41 121.152 56.8127 121.781 54.8865 122.362C53.8662 122.669 53.1172 123.54 52.956 124.594C52.9537 124.609 52.9523 124.624 52.9502 124.639C52.9476 124.654 52.9444 124.669 52.9421 124.684C52.781 125.738 53.2352 126.793 54.1168 127.391C55.7813 128.521 59.0259 130.197 64.4245 131.023C69.8231 131.849 73.4204 131.22 75.3467 130.64C76.3669 130.332 77.1159 129.461 77.2771 128.408C77.2794 128.393 77.2808 128.378 77.2829 128.363C77.2855 128.347 77.2887 128.333 77.291 128.317Z" fill="#7A2F18"/>
<path d="M64.9825 129.19C71.1545 130.134 76.4188 129.195 76.7405 127.093C77.0622 124.991 72.3196 122.521 66.1475 121.576C59.9754 120.632 54.7111 121.57 54.3894 123.673C54.0677 125.775 58.8104 128.245 64.9825 129.19Z" fill="#DB1D1D"/>
<path d="M65.2043 127.74C71.3763 128.685 76.6406 127.746 76.9623 125.644C77.284 123.541 72.5414 121.071 66.3693 120.127C60.1972 119.182 54.9329 120.121 54.6112 122.224C54.2895 124.326 59.0322 126.796 65.2043 127.74Z" fill="#FF473E"/>
<path d="M78.2672 123.389C77.0983 122.485 75.2741 121.92 73.6327 121.67C72.7374 121.533 71.8117 121.487 70.9305 121.531C70.2441 121.565 69.5673 121.638 68.8693 121.622C68.7538 121.609 68.6388 121.592 68.5244 121.572C68.4475 121.548 68.3714 121.522 68.296 121.493C68.0269 121.354 67.7745 121.201 67.5157 121.053C67.1011 120.815 66.66 120.61 66.2046 120.412C65.4033 120.062 64.5399 119.822 63.6528 119.632C61.9777 119.274 60.1961 119.262 58.6148 119.544C58.3711 119.527 58.1262 119.539 57.8854 119.581C56.273 119.857 54.8487 120.475 53.7902 121.289C53.5655 121.462 53.3615 121.648 53.1807 121.844C52.7867 122.272 52.4236 122.718 52.6277 123.289C53.0097 124.359 54.548 124.963 56.0492 124.955C57.0847 124.95 57.94 124.633 58.7963 124.34C59.0095 124.276 59.2283 124.222 59.4566 124.181C59.4815 124.18 59.3688 125.077 59.3937 125.076C59.5784 125.23 59.7499 125.389 59.9395 125.54C60.2624 125.797 60.6112 126.05 60.9893 126.272C61.7638 126.726 62.718 127.088 63.6892 127.23C64.6816 127.376 65.6602 127.313 66.5032 127.036C66.9523 126.888 67.3323 126.691 67.6429 126.428C67.7566 126.332 67.8577 126.229 67.9663 126.131C68.0392 126.156 68.714 125.53 68.897 125.654C69.3513 125.99 69.7919 126.337 70.2935 126.641C70.987 127.061 71.8302 127.378 72.7089 127.514C74.4006 127.776 76.0952 127.379 77.3856 126.804C78.0516 126.507 78.6977 126.076 78.9497 125.544C79.2835 124.84 79.0862 124.023 78.2672 123.389ZM60.7619 121.893C61.1269 121.871 61.4929 121.868 61.8583 121.882C62.3586 121.927 62.8557 122.003 63.3465 122.11C63.8037 122.234 64.2462 122.384 64.6717 122.56C65.0055 122.724 65.177 123.807 65.4931 123.986C65.1128 124.197 64.8731 124.482 64.5486 124.73C64.5329 124.737 64.5168 124.744 64.5007 124.751C64.4622 124.76 64.4234 124.769 64.3846 124.776C64.3136 124.78 64.2425 124.781 64.1715 124.781C64.0821 124.77 63.9931 124.756 63.9045 124.74C63.7748 124.7 63.6466 124.655 63.5203 124.606C63.3206 124.504 63.1267 124.391 62.9395 124.268C62.6022 124.005 62.3037 123.722 61.9483 123.468C61.5645 123.193 61.2551 122.055 60.7619 121.893ZM74.5178 124.847C74.2293 124.933 73.9315 125.004 73.6201 125.055C73.4839 125.064 73.3473 125.069 73.2106 125.068C73.1415 125.059 73.0726 125.049 73.004 125.037C72.9373 125.016 72.8711 124.993 72.8055 124.968C72.5821 124.852 72.3749 124.723 72.1758 124.587C71.9427 124.414 71.7134 124.236 71.4767 124.064C71.8388 124.047 72.2024 124.038 72.5727 124.05C73.0397 124.093 73.5036 124.164 73.9619 124.264C74.3342 124.365 74.7008 124.487 75.06 124.628C74.8871 124.708 74.7051 124.78 74.5178 124.847Z" fill="#00B89C"/>
<path d="M57.739 126.044C57.2051 124.788 56.1651 122.464 54.7982 120.001C52.2865 120.042 72.3012 119.738 72.3012 119.738C77.662 121.146 77.9692 123.952 77.7617 125.327C77.6952 125.767 77.265 126.055 76.8309 125.957C65.2847 123.344 60.5156 125.281 58.8735 126.385C58.4735 126.654 57.9275 126.488 57.739 126.044Z" fill="#FECB21"/>
<path d="M67.4949 110.959C60.9827 109.962 54.698 113.21 53.9399 118.164C53.5357 120.805 58.6556 123.78 65.3755 124.809C72.0955 125.837 77.8707 124.529 78.2749 121.888C79.0115 117.074 74.007 111.955 67.4949 110.959Z" fill="#E59328"/>
<path d="M58.993 115.485L59.3343 116.67C59.3537 116.737 59.3456 116.809 59.3118 116.87C59.278 116.931 59.2213 116.977 59.1541 116.996C59.1151 117.007 59.0741 117.009 59.0342 117.002C58.9942 116.995 58.9565 116.978 58.9239 116.954L57.9347 116.218C57.6337 115.994 57.5711 115.569 57.7951 115.268C58.019 114.967 58.4446 114.904 58.7456 115.128C58.865 115.217 58.952 115.342 58.993 115.485ZM70.3573 113.217C70.0562 112.993 69.6307 113.055 69.4067 113.356C69.1828 113.657 69.2453 114.083 69.5464 114.307L70.5355 115.043C70.5682 115.067 70.6059 115.083 70.6458 115.09C70.6857 115.098 70.7267 115.096 70.7658 115.084C70.8329 115.065 70.8896 115.02 70.9234 114.959C70.9572 114.898 70.9653 114.825 70.946 114.758L70.6046 113.574C70.5636 113.431 70.4767 113.305 70.3573 113.217ZM64.0912 113.651C63.925 113.314 63.5176 113.176 63.1812 113.342C62.8448 113.509 62.7068 113.916 62.8731 114.253L63.4193 115.358C63.4374 115.394 63.4636 115.426 63.4959 115.45C63.5281 115.475 63.5656 115.492 63.6053 115.5C63.6739 115.513 63.745 115.499 63.803 115.459C63.8609 115.42 63.9009 115.36 63.9142 115.291L64.1491 114.081C64.1776 113.935 64.1572 113.784 64.0912 113.651ZM75.9805 118.508C76.1949 118.182 76.1043 117.744 75.7783 117.53C75.4523 117.315 75.0142 117.406 74.7999 117.732L74.2744 118.531C74.2454 118.575 74.2298 118.627 74.2294 118.68C74.2289 118.732 74.2437 118.784 74.2719 118.828C74.3001 118.873 74.3405 118.908 74.3884 118.931C74.4362 118.953 74.4894 118.961 74.5416 118.953L75.4889 118.82C75.6818 118.791 75.865 118.684 75.9805 118.508ZM65.5846 119.82C65.2304 119.696 64.8429 119.883 64.719 120.237C64.5952 120.591 64.7819 120.979 65.1361 121.102L66.2998 121.509C66.3382 121.523 66.379 121.527 66.4193 121.522C66.4595 121.517 66.4981 121.503 66.532 121.481C66.5609 121.461 66.5857 121.437 66.6051 121.408C66.6245 121.38 66.638 121.347 66.6449 121.313C66.6519 121.28 66.652 121.245 66.6455 121.211C66.6389 121.177 66.6257 121.144 66.6066 121.115L65.9272 120.087C65.8454 119.963 65.725 119.869 65.5846 119.82ZM71.8858 121.826C71.9822 122.188 72.3544 122.404 72.717 122.308C73.0796 122.211 73.2953 121.839 73.1988 121.476L72.8818 120.285C72.8712 120.246 72.8518 120.21 72.8251 120.179C72.7983 120.149 72.7649 120.125 72.7275 120.109C72.6955 120.096 72.6612 120.089 72.6266 120.089C72.592 120.089 72.5578 120.096 72.5258 120.109C72.4939 120.123 72.4649 120.142 72.4405 120.167C72.4161 120.191 72.3967 120.22 72.3835 120.252L71.914 121.392C71.8573 121.53 71.8474 121.682 71.8858 121.826ZM61.8495 119.948C61.9491 119.582 61.7331 119.205 61.3669 119.105C61.0008 119.005 60.6232 119.222 60.5236 119.588L60.1963 120.791C60.188 120.821 60.1864 120.854 60.1916 120.885C60.1967 120.916 60.2085 120.946 60.2262 120.973C60.259 121.022 60.3099 121.056 60.3677 121.067C60.4255 121.078 60.4854 121.066 60.5343 121.033L61.5695 120.339C61.7067 120.246 61.8061 120.108 61.8495 119.948ZM68.343 118.678C68.6716 118.859 69.0848 118.739 69.266 118.411C69.4471 118.082 69.3276 117.669 68.999 117.488L67.9193 116.893C67.8837 116.873 67.8442 116.862 67.8037 116.86C67.7631 116.859 67.7228 116.866 67.6856 116.882C67.6217 116.911 67.5716 116.963 67.5464 117.028C67.5212 117.094 67.5229 117.166 67.5512 117.23L68.0496 118.358C68.1096 118.494 68.2127 118.606 68.343 118.678Z" fill="#FFCD7D"/>
<path d="M114.758 137.507C114.597 138.561 113.848 139.432 112.828 139.739C110.901 140.32 107.304 140.949 101.906 140.123C96.5069 139.297 93.2623 137.621 91.5978 136.491C90.7162 135.892 90.262 134.837 90.4231 133.784C90.6547 132.27 92.0691 131.232 93.5823 131.463L112.438 134.348C113.951 134.58 114.99 135.994 114.758 137.507Z" fill="#E59328"/>
<path d="M115.291 133.317C115.452 132.264 114.998 131.209 114.116 130.61C112.452 129.48 109.207 127.804 103.809 126.978C98.41 126.152 94.8127 126.781 92.8865 127.362C91.8662 127.669 91.1172 128.54 90.956 129.594C90.9537 129.609 90.9523 129.624 90.9502 129.639C90.9476 129.654 90.9444 129.669 90.9421 129.684C90.781 130.738 91.2352 131.793 92.1168 132.391C93.7813 133.521 97.0259 135.197 102.425 136.023C107.823 136.849 111.42 136.22 113.347 135.64C114.367 135.332 115.116 134.461 115.277 133.408C115.279 133.393 115.281 133.378 115.283 133.363C115.285 133.347 115.289 133.333 115.291 133.317Z" fill="#7A2F18"/>
<path d="M102.982 134.19C109.155 135.134 114.419 134.195 114.741 132.093C115.062 129.991 110.32 127.521 104.147 126.576C97.9754 125.632 92.7111 126.57 92.3894 128.673C92.0677 130.775 96.8104 133.245 102.982 134.19Z" fill="#DB1D1D"/>
<path d="M103.204 132.74C109.376 133.685 114.641 132.746 114.962 130.644C115.284 128.541 110.541 126.071 104.369 125.127C98.1972 124.182 92.9329 125.121 92.6112 127.224C92.2895 129.326 97.0322 131.796 103.204 132.74Z" fill="#FF473E"/>
<path d="M116.267 128.389C115.098 127.485 113.274 126.92 111.633 126.67C110.737 126.533 109.812 126.487 108.931 126.531C108.244 126.565 107.567 126.638 106.869 126.622C106.754 126.609 106.639 126.592 106.524 126.572C106.448 126.548 106.371 126.522 106.296 126.493C106.027 126.354 105.774 126.201 105.516 126.053C105.101 125.815 104.66 125.61 104.205 125.412C103.403 125.062 102.54 124.822 101.653 124.632C99.9777 124.274 98.1961 124.262 96.6148 124.544C96.3711 124.527 96.1262 124.539 95.8854 124.581C94.273 124.857 92.8487 125.475 91.7902 126.289C91.5655 126.462 91.3615 126.648 91.1807 126.844C90.7867 127.272 90.4236 127.718 90.6277 128.289C91.0097 129.359 92.548 129.963 94.0492 129.955C95.0847 129.95 95.94 129.633 96.7963 129.34C97.0095 129.276 97.2283 129.222 97.4566 129.181C97.4815 129.18 97.3688 130.077 97.3937 130.076C97.5784 130.23 97.7499 130.389 97.9395 130.54C98.2624 130.797 98.6112 131.05 98.9893 131.272C99.7638 131.726 100.718 132.088 101.689 132.23C102.682 132.376 103.66 132.313 104.503 132.036C104.952 131.888 105.332 131.691 105.643 131.428C105.757 131.332 105.858 131.229 105.966 131.131C106.039 131.156 106.714 130.53 106.897 130.654C107.351 130.99 107.792 131.337 108.293 131.641C108.987 132.061 109.83 132.378 110.709 132.514C112.401 132.776 114.095 132.379 115.386 131.804C116.052 131.507 116.698 131.076 116.95 130.544C117.283 129.84 117.086 129.023 116.267 128.389ZM98.7619 126.893C99.1269 126.871 99.4929 126.868 99.8583 126.882C100.359 126.927 100.856 127.003 101.346 127.11C101.804 127.234 102.246 127.384 102.672 127.56C103.005 127.724 103.177 128.807 103.493 128.986C103.113 129.197 102.873 129.482 102.549 129.73C102.533 129.737 102.517 129.744 102.501 129.751C102.462 129.76 102.423 129.769 102.385 129.776C102.314 129.78 102.243 129.781 102.171 129.781C102.082 129.77 101.993 129.756 101.905 129.74C101.775 129.7 101.647 129.655 101.52 129.606C101.321 129.504 101.127 129.391 100.94 129.268C100.602 129.005 100.304 128.722 99.9483 128.468C99.5645 128.193 99.2551 127.055 98.7619 126.893ZM112.518 129.847C112.229 129.933 111.932 130.004 111.62 130.055C111.484 130.064 111.347 130.069 111.211 130.068C111.142 130.059 111.073 130.049 111.004 130.037C110.937 130.016 110.871 129.993 110.806 129.968C110.582 129.852 110.375 129.723 110.176 129.587C109.943 129.414 109.713 129.236 109.477 129.064C109.839 129.047 110.202 129.038 110.573 129.05C111.04 129.093 111.504 129.164 111.962 129.264C112.334 129.365 112.701 129.487 113.06 129.628C112.887 129.708 112.705 129.78 112.518 129.847Z" fill="#00B89C"/>
<path d="M95.739 131.044C95.2051 129.788 94.1651 127.464 92.7982 125.001C90.2865 125.042 110.301 124.738 110.301 124.738C115.662 126.146 115.969 128.952 115.762 130.327C115.695 130.767 115.265 131.055 114.831 130.957C103.285 128.344 98.5156 130.281 96.8735 131.385C96.4735 131.654 95.9275 131.488 95.739 131.044Z" fill="#FECB21"/>
<path d="M105.495 115.959C98.9827 114.962 92.698 118.21 91.9399 123.164C91.5357 125.805 96.6556 128.78 103.376 129.809C110.095 130.837 115.871 129.529 116.275 126.888C117.012 122.074 112.007 116.955 105.495 115.959Z" fill="#E59328"/>
<path d="M96.993 120.485L97.3343 121.67C97.3537 121.737 97.3456 121.809 97.3118 121.87C97.278 121.931 97.2213 121.977 97.1541 121.996C97.1151 122.007 97.0741 122.009 97.0342 122.002C96.9942 121.995 96.9565 121.978 96.9239 121.954L95.9347 121.218C95.6337 120.994 95.5711 120.569 95.7951 120.268C96.019 119.967 96.4446 119.904 96.7456 120.128C96.865 120.217 96.952 120.342 96.993 120.485ZM108.357 118.217C108.056 117.993 107.631 118.055 107.407 118.356C107.183 118.657 107.245 119.083 107.546 119.307L108.536 120.043C108.568 120.067 108.606 120.083 108.646 120.09C108.686 120.098 108.727 120.096 108.766 120.084C108.833 120.065 108.89 120.02 108.923 119.959C108.957 119.898 108.965 119.825 108.946 119.758L108.605 118.574C108.564 118.431 108.477 118.305 108.357 118.217ZM102.091 118.651C101.925 118.314 101.518 118.176 101.181 118.342C100.845 118.509 100.707 118.916 100.873 119.253L101.419 120.358C101.437 120.394 101.464 120.426 101.496 120.45C101.528 120.475 101.566 120.492 101.605 120.5C101.674 120.513 101.745 120.499 101.803 120.459C101.861 120.42 101.901 120.36 101.914 120.291L102.149 119.081C102.178 118.935 102.157 118.784 102.091 118.651ZM113.981 123.508C114.195 123.182 114.104 122.744 113.778 122.53C113.452 122.315 113.014 122.406 112.8 122.732L112.274 123.531C112.245 123.575 112.23 123.627 112.229 123.68C112.229 123.732 112.244 123.784 112.272 123.828C112.3 123.873 112.341 123.908 112.388 123.931C112.436 123.953 112.489 123.961 112.542 123.953L113.489 123.82C113.682 123.791 113.865 123.684 113.981 123.508ZM103.585 124.82C103.23 124.696 102.843 124.883 102.719 125.237C102.595 125.591 102.782 125.979 103.136 126.102L104.3 126.509C104.338 126.523 104.379 126.527 104.419 126.522C104.459 126.517 104.498 126.503 104.532 126.481C104.561 126.461 104.586 126.437 104.605 126.408C104.624 126.38 104.638 126.347 104.645 126.313C104.652 126.28 104.652 126.245 104.645 126.211C104.639 126.177 104.626 126.144 104.607 126.115L103.927 125.087C103.845 124.963 103.725 124.869 103.585 124.82ZM109.886 126.826C109.982 127.188 110.354 127.404 110.717 127.308C111.08 127.211 111.295 126.839 111.199 126.476L110.882 125.285C110.871 125.246 110.852 125.21 110.825 125.179C110.798 125.149 110.765 125.125 110.728 125.109C110.696 125.096 110.661 125.089 110.627 125.089C110.592 125.089 110.558 125.096 110.526 125.109C110.494 125.123 110.465 125.142 110.44 125.167C110.416 125.191 110.397 125.22 110.384 125.252L109.914 126.392C109.857 126.53 109.847 126.682 109.886 126.826ZM99.8495 124.948C99.9491 124.582 99.7331 124.205 99.3669 124.105C99.0008 124.005 98.6232 124.222 98.5236 124.588L98.1963 125.791C98.188 125.821 98.1864 125.854 98.1916 125.885C98.1967 125.916 98.2085 125.946 98.2262 125.973C98.259 126.022 98.3099 126.056 98.3677 126.067C98.4255 126.078 98.4854 126.066 98.5343 126.033L99.5695 125.339C99.7067 125.246 99.8061 125.108 99.8495 124.948ZM106.343 123.678C106.672 123.859 107.085 123.739 107.266 123.411C107.447 123.082 107.328 122.669 106.999 122.488L105.919 121.893C105.884 121.873 105.844 121.862 105.804 121.86C105.763 121.859 105.723 121.866 105.686 121.882C105.622 121.911 105.572 121.963 105.546 122.028C105.521 122.094 105.523 122.166 105.551 122.23L106.05 123.358C106.11 123.494 106.213 123.606 106.343 123.678Z" fill="#FFCD7D"/>
<path d="M45.9463 77.9767L45.9385 77.9773C45.9594 77.8706 45.979 77.7634 45.9956 77.6551C46.7753 72.5597 42.3909 67.6614 36.2028 66.7145C30.0147 65.7676 24.3662 69.1306 23.5865 74.2261C23.5699 74.3344 23.5565 74.4426 23.5446 74.5506L23.5373 74.5477L23.5382 74.6115C23.4767 75.2104 23.4849 75.8145 23.5626 76.4115L23.7134 87.5501C23.7236 88.3015 24.0614 89.0132 24.6437 89.4881C25.8578 90.4783 28.3159 92.0442 32.2351 92.6439C36.1543 93.2437 38.9682 92.4845 40.4229 91.9027C41.1206 91.6236 41.6557 91.0455 41.8901 90.3316L45.365 79.7477C45.6176 79.2012 45.806 78.6273 45.9265 78.0374L45.9463 77.9767Z" fill="#D1552A"/>
<path d="M28.0837 82.8861L31.2478 73.5342C31.4512 72.9329 32.1035 72.6104 32.7048 72.8139C33.306 73.0173 33.6285 73.6696 33.4251 74.2709L30.261 83.6228C30.0576 84.2241 29.4053 84.5466 28.804 84.3431C28.2028 84.1397 27.8802 83.4874 28.0837 82.8861Z" fill="#E59328"/>
<path d="M32.6902 84.4145L34.0674 71.4024C34.1378 70.7367 34.7346 70.2542 35.4003 70.3246L35.9023 70.3778C36.568 70.4482 37.0505 71.045 36.9801 71.7107L35.6029 84.7228C35.5324 85.3885 34.9356 85.871 34.2699 85.8006L33.768 85.7475C33.1023 85.677 32.6198 85.0802 32.6902 84.4145Z" fill="#E59328"/>
<path d="M40.0286 82.0944L42.3285 71.3215C42.461 70.7007 43.0717 70.3049 43.6924 70.4374L43.9036 70.4825C44.5243 70.6151 44.9201 71.2257 44.7876 71.8465L42.4877 82.6194C42.3552 83.2402 41.7446 83.636 41.1238 83.5035L40.9127 83.4584C40.2919 83.3258 39.8961 82.7152 40.0286 82.0944Z" fill="#E59328"/>
<path d="M36.8859 84.2013L39.1858 73.4283C39.3183 72.8075 39.929 72.4117 40.5497 72.5442L40.7609 72.5893C41.3816 72.7219 41.7774 73.3325 41.6449 73.9533L39.345 84.7263C39.2125 85.347 38.6019 85.7428 37.9811 85.6103L37.77 85.5652C37.1492 85.4326 36.7534 84.822 36.8859 84.2013Z" fill="#E59328"/>
<path d="M26.2964 78.7365L27.7458 68.9708C27.839 68.343 28.4235 67.9095 29.0514 68.0027C29.6792 68.0959 30.1127 68.6804 30.0195 69.3083L28.5701 79.074C28.477 79.7019 27.8924 80.1353 27.2646 80.0421C26.6367 79.9489 26.2032 79.3644 26.2964 78.7365Z" fill="#E59328"/>
<path d="M25.2715 80.2118L24.8219 70.3493C24.793 69.7153 25.2835 69.1778 25.9176 69.1489C26.5517 69.12 27.0892 69.6106 27.1181 70.2446L27.5676 80.1071C27.5965 80.7412 27.106 81.2786 26.4719 81.3076C25.8378 81.3364 25.3003 80.8458 25.2715 80.2118Z" fill="#FECB21"/>
<path d="M29.9619 84.4114L33.1259 75.0595C33.3294 74.4582 33.9817 74.1357 34.5829 74.3392C35.1842 74.5426 35.5067 75.1949 35.3033 75.7962L32.1392 85.1481C31.9358 85.7494 31.2834 86.0719 30.6822 85.8684C30.0809 85.665 29.7584 85.0127 29.9619 84.4114Z" fill="#FECB21"/>
<path d="M35.5184 84.3373L36.5575 74.5194C36.6243 73.8882 37.1902 73.4306 37.8214 73.4975C38.4526 73.5643 38.9101 74.1301 38.8433 74.7613L37.8042 84.5792C37.7374 85.2104 37.1715 85.668 36.5403 85.6011C35.9091 85.5343 35.4516 84.9685 35.5184 84.3373Z" fill="#FECB21"/>
<path d="M27.875 80.343L30.3071 70.7746C30.4635 70.1594 31.0889 69.7875 31.7041 69.9438C32.3193 70.1002 32.6912 70.7256 32.5348 71.3408L30.1028 80.9092C29.9464 81.5244 29.321 81.8963 28.7058 81.74C28.0906 81.5836 27.7186 80.9582 27.875 80.343Z" fill="#FECB21"/>
<path d="M47.5019 72.5278L43.6457 81.6162C43.3978 82.2005 42.7231 82.4732 42.1388 82.2253C41.9443 82.1432 41.7764 82.0088 41.6536 81.8371C41.4433 82.0333 41.167 82.1433 40.8794 82.1451C40.2447 82.1499 39.7262 81.6392 39.7214 81.0045L39.6465 71.1322C39.6417 70.4974 40.1523 69.979 40.787 69.9742C41.4218 69.9693 41.9402 70.48 41.945 71.1147L42.0094 79.5879L45.3859 71.63C45.6338 71.0457 46.3086 70.773 46.8929 71.0209C47.4771 71.2688 47.7498 71.9435 47.5019 72.5278Z" fill="#FECB21"/>
<path d="M45.9648 77.8552C45.6893 79.6557 42.3494 79.7654 41.2992 79.755C41.2079 79.754 41.1182 79.7784 41.0401 79.8256C40.962 79.8728 40.8986 79.9408 40.8571 80.0221C40.3625 80.9926 38.3655 84.1596 33.6438 83.4371C29.081 82.7389 28.0323 79.3356 27.8029 78.1381C27.7788 78.0127 27.7212 77.8962 27.6361 77.801C27.5511 77.7057 27.4418 77.6353 27.3199 77.5973C26.2063 77.2476 23.2905 76.1601 23.5558 74.4262C23.5392 74.5345 23.5258 74.6427 23.5139 74.7508L23.5066 74.7478L23.5074 74.8116C23.4473 75.3982 23.4539 75.9897 23.5271 76.5748C23.5302 76.5994 23.532 76.6241 23.5323 76.6487L23.6777 87.3839C23.6916 88.4102 24.1771 89.3759 24.9997 89.9899C26.3154 90.9719 28.6636 92.3022 32.2043 92.844C35.844 93.401 38.5304 92.786 40.0602 92.2294C40.9525 91.9048 41.6445 91.1858 41.9407 90.2836L45.3261 79.9723C45.3314 79.956 45.3377 79.9401 45.3449 79.9245C45.5921 79.385 45.7769 78.819 45.8957 78.2375L45.9156 78.1769L45.9077 78.1775C45.9287 78.0708 45.9483 77.9636 45.9648 77.8552Z" fill="#FF6F1F"/>
<path d="M125.946 51.9767L125.938 51.9773C125.959 51.8706 125.979 51.7634 125.996 51.6551C126.775 46.5597 122.391 41.6614 116.203 40.7145C110.015 39.7676 104.366 43.1306 103.587 48.2261C103.57 48.3344 103.557 48.4426 103.545 48.5506L103.537 48.5477L103.538 48.6115C103.477 49.2104 103.485 49.8145 103.563 50.4115L103.713 61.5501C103.724 62.3015 104.061 63.0132 104.644 63.4881C105.858 64.4783 108.316 66.0442 112.235 66.6439C116.154 67.2437 118.968 66.4845 120.423 65.9027C121.121 65.6236 121.656 65.0455 121.89 64.3316L125.365 53.7477C125.618 53.2012 125.806 52.6273 125.927 52.0374L125.946 51.9767Z" fill="#D1552A"/>
<path d="M108.084 56.8861L111.248 47.5342C111.451 46.9329 112.104 46.6104 112.705 46.8139C113.306 47.0173 113.628 47.6696 113.425 48.2709L110.261 57.6228C110.058 58.2241 109.405 58.5466 108.804 58.3431C108.203 58.1397 107.88 57.4874 108.084 56.8861Z" fill="#E59328"/>
<path d="M112.69 58.4145L114.067 45.4024C114.138 44.7367 114.735 44.2542 115.4 44.3246L115.902 44.3778C116.568 44.4482 117.051 45.045 116.98 45.7107L115.603 58.7228C115.532 59.3885 114.936 59.871 114.27 59.8006L113.768 59.7475C113.102 59.677 112.62 59.0802 112.69 58.4145Z" fill="#E59328"/>
<path d="M120.029 56.0944L122.329 45.3215C122.461 44.7007 123.072 44.3049 123.692 44.4374L123.904 44.4825C124.524 44.6151 124.92 45.2257 124.788 45.8465L122.488 56.6194C122.355 57.2402 121.745 57.636 121.124 57.5035L120.913 57.4584C120.292 57.3258 119.896 56.7152 120.029 56.0944Z" fill="#E59328"/>
<path d="M116.886 58.2013L119.186 47.4283C119.318 46.8075 119.929 46.4117 120.55 46.5442L120.761 46.5893C121.382 46.7219 121.777 47.3325 121.645 47.9533L119.345 58.7263C119.213 59.347 118.602 59.7428 117.981 59.6103L117.77 59.5652C117.149 59.4326 116.753 58.822 116.886 58.2013Z" fill="#E59328"/>
<path d="M106.296 52.7365L107.746 42.9708C107.839 42.343 108.423 41.9095 109.051 42.0027C109.679 42.0959 110.113 42.6804 110.019 43.3083L108.57 53.074C108.477 53.7019 107.892 54.1353 107.265 54.0421C106.637 53.9489 106.203 53.3644 106.296 52.7365Z" fill="#E59328"/>
<path d="M105.271 54.2118L104.822 44.3493C104.793 43.7153 105.284 43.1778 105.918 43.1489C106.552 43.12 107.089 43.6106 107.118 44.2446L107.568 54.1071C107.597 54.7412 107.106 55.2786 106.472 55.3076C105.838 55.3364 105.3 54.8458 105.271 54.2118Z" fill="#FECB21"/>
<path d="M109.962 58.4114L113.126 49.0595C113.329 48.4582 113.982 48.1357 114.583 48.3392C115.184 48.5426 115.507 49.1949 115.303 49.7962L112.139 59.1481C111.936 59.7494 111.283 60.0719 110.682 59.8684C110.081 59.665 109.758 59.0127 109.962 58.4114Z" fill="#FECB21"/>
<path d="M115.518 58.3373L116.557 48.5194C116.624 47.8882 117.19 47.4306 117.821 47.4975C118.453 47.5643 118.91 48.1301 118.843 48.7613L117.804 58.5792C117.737 59.2104 117.172 59.668 116.54 59.6011C115.909 59.5343 115.452 58.9685 115.518 58.3373Z" fill="#FECB21"/>
<path d="M107.875 54.343L110.307 44.7746C110.463 44.1594 111.089 43.7875 111.704 43.9438C112.319 44.1002 112.691 44.7256 112.535 45.3408L110.103 54.9092C109.946 55.5244 109.321 55.8963 108.706 55.74C108.091 55.5836 107.719 54.9582 107.875 54.343Z" fill="#FECB21"/>
<path d="M127.502 46.5278L123.646 55.6162C123.398 56.2005 122.723 56.4732 122.139 56.2253C121.944 56.1432 121.776 56.0088 121.654 55.8371C121.443 56.0333 121.167 56.1433 120.879 56.1451C120.245 56.1499 119.726 55.6392 119.721 55.0045L119.646 45.1322C119.642 44.4974 120.152 43.979 120.787 43.9742C121.422 43.9693 121.94 44.48 121.945 45.1147L122.009 53.5879L125.386 45.63C125.634 45.0457 126.309 44.773 126.893 45.0209C127.477 45.2688 127.75 45.9435 127.502 46.5278Z" fill="#FECB21"/>
<path d="M125.965 51.8552C125.689 53.6557 122.349 53.7654 121.299 53.755C121.208 53.754 121.118 53.7784 121.04 53.8256C120.962 53.8728 120.899 53.9408 120.857 54.0221C120.363 54.9926 118.365 58.1596 113.644 57.4371C109.081 56.7389 108.032 53.3356 107.803 52.1381C107.779 52.0127 107.721 51.8962 107.636 51.801C107.551 51.7057 107.442 51.6353 107.32 51.5973C106.206 51.2476 103.29 50.1601 103.556 48.4262C103.539 48.5345 103.526 48.6427 103.514 48.7508L103.507 48.7478L103.507 48.8116C103.447 49.3982 103.454 49.9897 103.527 50.5748C103.53 50.5994 103.532 50.6241 103.532 50.6487L103.678 61.3839C103.692 62.4102 104.177 63.3759 105 63.9899C106.315 64.9719 108.664 66.3022 112.204 66.844C115.844 67.401 118.53 66.786 120.06 66.2294C120.953 65.9048 121.645 65.1858 121.941 64.2836L125.326 53.9723C125.331 53.956 125.338 53.9401 125.345 53.9245C125.592 53.385 125.777 52.819 125.896 52.2375L125.916 52.1769L125.908 52.1775C125.929 52.0708 125.948 51.9636 125.965 51.8552Z" fill="#FF6F1F"/>
<path d="M75.7385 42.7829C70.3106 41.9523 64.5682 43.1771 63.9398 47.2834C63.2396 51.8591 64.1466 60.2884 72.8559 61.6211C81.5652 62.9538 84.9513 55.1814 85.6515 50.6058C86.2798 46.4995 81.1664 43.6135 75.7385 42.7829Z" fill="#E0E0E0"/>
<path d="M71.2399 43.727C70.3053 43.1596 69.6276 41.9341 69.6996 40.9913C69.8518 38.9601 71.0919 38.4152 71.3597 36.6651C71.5843 35.1977 71.4538 34.3894 71.0275 33.9138C70.904 33.7759 70.8871 33.7337 70.9057 33.7039C70.9325 33.666 70.9363 33.6409 71.1448 33.7265C71.998 34.0786 73.3113 35.1284 73.0871 36.8828C72.8482 38.7492 71.7637 39.0241 71.3021 41.0196C71.13 41.7629 70.9656 42.8222 71.3548 43.586C71.4034 43.6797 71.4073 43.7153 71.4015 43.7377C71.3921 43.769 71.3346 43.7788 71.2399 43.727Z" fill="#E0E0E0"/>
<path d="M76.3843 43.5604C75.4497 42.993 74.772 41.7675 74.844 40.8247C74.9962 38.7935 76.2363 38.2486 76.5041 36.4986C76.7287 35.0311 76.5981 34.2229 76.1719 33.7472C76.048 33.6116 76.0312 33.5694 76.0497 33.5396C76.0765 33.5017 76.0803 33.4766 76.2888 33.5622C77.1421 33.9143 78.4553 34.9641 78.2312 36.7185C77.9922 38.5849 76.9077 38.8598 76.4461 40.8553C76.2741 41.5986 76.1096 42.6579 76.4988 43.4217C76.5474 43.5154 76.5513 43.551 76.5456 43.5734C76.5365 43.6024 76.4786 43.6145 76.3843 43.5604Z" fill="#E0E0E0"/>
<path d="M80.8637 45.3932C79.9291 44.8258 79.2514 43.6004 79.3234 42.6575C79.4756 40.6263 80.7157 40.0814 80.9835 38.3314C81.2081 36.8639 81.0775 36.0557 80.6513 35.58C80.5278 35.4422 80.5109 35.3999 80.5295 35.3701C80.5562 35.3322 80.5601 35.3072 80.7685 35.3927C81.6218 35.7448 82.9351 36.7947 82.7109 38.5491C82.4719 40.4155 81.3875 40.6903 80.9258 42.6859C80.7538 43.4291 80.5894 44.4884 80.9786 45.2522C81.0272 45.346 81.0311 45.3815 81.0253 45.404C81.0159 45.4352 80.958 45.4473 80.8637 45.3932Z" fill="#E0E0E0"/>
<path d="M74.0515 53.8074C79.1069 54.581 83.5346 53.0554 83.9409 50.4C84.3472 47.7446 80.5784 44.9648 75.523 44.1912C70.4676 43.4176 66.04 44.9432 65.6336 47.5986C65.2273 50.254 68.9961 53.0338 74.0515 53.8074Z" fill="#90A4AE"/>
<path d="M73.6881 56.1818C78.7435 56.9554 83.1712 55.4299 83.5775 52.7744C83.9838 50.119 80.215 47.3392 75.1596 46.5656C70.1042 45.792 65.6766 47.3176 65.2702 49.973C64.8639 52.6285 68.6327 55.4082 73.6881 56.1818Z" fill="#855C52"/>
<path d="M79.9636 59.0941C79.8132 59.0711 79.7269 59.0555 79.7204 59.0522C79.5578 59.0166 79.4038 58.9494 79.2673 58.8542C79.1307 58.759 79.0143 58.6379 78.9246 58.4976C78.8349 58.3574 78.7738 58.2009 78.7447 58.037C78.7156 57.8731 78.7192 57.7051 78.7551 57.5425C78.7903 57.3796 78.8573 57.2253 78.9523 57.0883C79.0474 56.9514 79.1685 56.8346 79.3089 56.7447C79.4492 56.6548 79.6059 56.5935 79.77 56.5643C79.9341 56.5352 80.1024 56.5388 80.2651 56.5749C80.3243 56.584 86.2517 57.5493 87.6825 54.4777C88.0227 53.7485 88.0874 53.173 87.8766 52.7676C87.691 52.4104 87.0745 51.761 85.042 51.4034C84.8779 51.3747 84.7211 51.314 84.5805 51.2246C84.4399 51.1353 84.3183 51.0191 84.2226 50.8828C84.127 50.7464 84.0591 50.5925 84.023 50.4299C83.9869 50.2673 83.9831 50.0992 84.012 49.9351C84.1339 49.2449 84.7961 48.7888 85.4802 48.9052C87.8493 49.319 89.4107 50.2249 90.1271 51.5938C90.7222 52.7343 90.6728 54.0631 89.9818 55.5455C87.8824 60.0446 81.3149 59.3008 79.9636 59.0941Z" fill="#E0E0E0"/>
<path d="M73.1167 48.8976C73.4045 48.9066 73.7237 48.6803 73.6609 48.4351C73.6104 48.2315 73.3394 48.1434 73.1061 48.0984C72.1777 47.9167 70.5105 48.1443 69.0628 48.5827C68.865 48.6411 68.5081 48.8244 68.432 49.0016C68.3492 49.1918 68.5026 49.3785 68.7003 49.4275C68.898 49.4764 69.1225 49.4268 69.3356 49.3754C71.1084 48.9611 71.6708 48.8676 73.1167 48.8976Z" fill="#BCAAA4"/>
<path d="M26.7385 111.783C21.3106 110.952 15.5682 112.177 14.9398 116.283C14.2396 120.859 15.1466 129.288 23.8559 130.621C32.5652 131.954 35.9513 124.181 36.6515 119.606C37.2798 115.499 32.1664 112.613 26.7385 111.783Z" fill="#E0E0E0"/>
<path d="M22.2399 112.727C21.3053 112.16 20.6276 110.934 20.6996 109.991C20.8518 107.96 22.0919 107.415 22.3597 105.665C22.5843 104.198 22.4538 103.389 22.0275 102.914C21.904 102.776 21.8871 102.734 21.9057 102.704C21.9325 102.666 21.9363 102.641 22.1448 102.726C22.998 103.079 24.3113 104.128 24.0871 105.883C23.8482 107.749 22.7637 108.024 22.3021 110.02C22.13 110.763 21.9656 111.822 22.3548 112.586C22.4034 112.68 22.4073 112.715 22.4015 112.738C22.3921 112.769 22.3346 112.779 22.2399 112.727Z" fill="#E0E0E0"/>
<path d="M27.3843 112.56C26.4497 111.993 25.772 110.768 25.844 109.825C25.9962 107.793 27.2363 107.249 27.5041 105.499C27.7287 104.031 27.5981 103.223 27.1719 102.747C27.048 102.612 27.0312 102.569 27.0497 102.54C27.0765 102.502 27.0803 102.477 27.2888 102.562C28.1421 102.914 29.4553 103.964 29.2312 105.719C28.9922 107.585 27.9077 107.86 27.4461 109.855C27.2741 110.599 27.1096 111.658 27.4988 112.422C27.5474 112.515 27.5513 112.551 27.5456 112.573C27.5365 112.602 27.4786 112.615 27.3843 112.56Z" fill="#E0E0E0"/>
<path d="M31.8637 114.393C30.9291 113.826 30.2514 112.6 30.3234 111.658C30.4756 109.626 31.7157 109.081 31.9835 107.331C32.2081 105.864 32.0775 105.056 31.6513 104.58C31.5278 104.442 31.5109 104.4 31.5295 104.37C31.5562 104.332 31.5601 104.307 31.7685 104.393C32.6218 104.745 33.9351 105.795 33.7109 107.549C33.4719 109.415 32.3875 109.69 31.9258 111.686C31.7538 112.429 31.5894 113.488 31.9786 114.252C32.0272 114.346 32.0311 114.382 32.0253 114.404C32.0159 114.435 31.958 114.447 31.8637 114.393Z" fill="#E0E0E0"/>
<path d="M25.0515 122.807C30.1069 123.581 34.5346 122.055 34.9409 119.4C35.3472 116.745 31.5784 113.965 26.523 113.191C21.4676 112.418 17.04 113.943 16.6336 116.599C16.2273 119.254 19.9961 122.034 25.0515 122.807Z" fill="#90A4AE"/>
<path d="M24.6881 125.182C29.7435 125.955 34.1712 124.43 34.5775 121.774C34.9838 119.119 31.215 116.339 26.1596 115.566C21.1042 114.792 16.6766 116.318 16.2702 118.973C15.8639 121.628 19.6327 124.408 24.6881 125.182Z" fill="#855C52"/>
<path d="M30.9636 128.094C30.8132 128.071 30.7269 128.056 30.7204 128.052C30.5578 128.017 30.4038 127.949 30.2673 127.854C30.1307 127.759 30.0143 127.638 29.9246 127.498C29.8349 127.357 29.7738 127.201 29.7447 127.037C29.7156 126.873 29.7192 126.705 29.7551 126.543C29.7903 126.38 29.8573 126.225 29.9523 126.088C30.0474 125.951 30.1685 125.835 30.3089 125.745C30.4492 125.655 30.6059 125.593 30.77 125.564C30.9341 125.535 31.1024 125.539 31.2651 125.575C31.3243 125.584 37.2517 126.549 38.6825 123.478C39.0227 122.748 39.0874 122.173 38.8766 121.768C38.691 121.41 38.0745 120.761 36.042 120.403C35.8779 120.375 35.7211 120.314 35.5805 120.225C35.4399 120.135 35.3183 120.019 35.2226 119.883C35.127 119.746 35.0591 119.593 35.023 119.43C34.9869 119.267 34.9831 119.099 35.012 118.935C35.1339 118.245 35.7961 117.789 36.4802 117.905C38.8493 118.319 40.4107 119.225 41.1271 120.594C41.7222 121.734 41.6728 123.063 40.9818 124.545C38.8824 129.045 32.3149 128.301 30.9636 128.094Z" fill="#E0E0E0"/>
<path d="M24.1167 117.898C24.4045 117.907 24.7237 117.68 24.6609 117.435C24.6104 117.232 24.3394 117.143 24.1061 117.098C23.1777 116.917 21.5105 117.144 20.0628 117.583C19.865 117.641 19.5081 117.824 19.432 118.002C19.3492 118.192 19.5026 118.379 19.7003 118.427C19.898 118.476 20.1225 118.427 20.3356 118.375C22.1084 117.961 22.6708 117.868 24.1167 117.898Z" fill="#BCAAA4"/>
</svg>
