<svg width="10" height="20" viewBox="0 0 10 20" fill="none" xmlns="http://www.w3.org/2000/svg">
<path d="M1.65923 19.9999C1.87269 20.0006 2.0836 19.9535 2.27646 19.8621C2.46932 19.7706 2.63924 19.6371 2.77372 19.4714L9.67496 10.9008C9.88511 10.6452 10 10.3246 10 9.9937C10 9.66284 9.88511 9.34224 9.67496 9.08665L2.53082 0.516026C2.28829 0.224316 1.93978 0.0408693 1.56196 0.00604443C1.18414 -0.0287805 0.807958 0.0878684 0.516167 0.330329C0.224376 0.57279 0.0408802 0.921202 0.00604534 1.29892C-0.0287895 1.67663 0.0878916 2.05271 0.330419 2.34442L6.71728 10.0008L0.544744 17.6573C0.370022 17.8669 0.259035 18.1223 0.224916 18.393C0.190796 18.6638 0.23497 18.9386 0.352214 19.1851C0.469458 19.4315 0.654863 19.6392 0.886491 19.7836C1.11812 19.928 1.38628 20.0031 1.65923 19.9999Z" fill="#949494"/>
</svg>
