<svg width="24" height="24" viewBox="0 0 24 24" fill="none" xmlns="http://www.w3.org/2000/svg">
<path d="M0.501487 0.523351C0.822686 0.201972 1.25827 0.0214315 1.71244 0.0214315C2.16662 0.0214315 2.6022 0.201972 2.9234 0.523351L11.9893 9.59706L21.0552 0.523351C21.2132 0.359619 21.4022 0.229021 21.6112 0.139177C21.8201 0.0493333 22.0449 0.0020427 22.2723 6.47258e-05C22.4997 -0.00191325 22.7253 0.0414612 22.9358 0.127657C23.1463 0.213853 23.3375 0.341144 23.4983 0.502103C23.6591 0.663061 23.7863 0.854465 23.8725 1.06514C23.9586 1.27582 24.0019 1.50156 23.9999 1.72918C23.998 1.9568 23.9507 2.18175 23.8609 2.3909C23.7712 2.60005 23.6407 2.78921 23.4771 2.94735L14.4112 12.0211L23.4771 21.0948C23.7891 21.4181 23.9617 21.8511 23.9578 22.3006C23.9539 22.7501 23.7738 23.1801 23.4562 23.4979C23.1387 23.8157 22.7091 23.996 22.26 23.9999C21.8109 24.0038 21.3782 23.8311 21.0552 23.5188L11.9893 14.4451L2.9234 23.5188C2.60036 23.8311 2.1677 24.0038 1.71861 23.9999C1.26951 23.996 0.83992 23.8157 0.522352 23.4979C0.204783 23.1801 0.0246489 22.7501 0.0207464 22.3006C0.0168439 21.8511 0.189485 21.4181 0.501487 21.0948L9.56738 12.0211L0.501487 2.94735C0.180385 2.62588 0 2.18992 0 1.73535C0 1.28078 0.180385 0.844827 0.501487 0.523351Z" fill="#949494"/>
</svg>
