<svg width="25" height="30" viewBox="0 0 25 30" fill="none" xmlns="http://www.w3.org/2000/svg">
<path d="M12.5 0C19.4038 0 25 5.52752 25 12.3467C25 17.564 21.2885 23.2498 13.9615 29.4649C13.5541 29.8106 13.0347 30.0005 12.4976 30C11.9605 29.9995 11.4414 29.8088 11.0346 29.4624L10.55 29.047C3.54744 22.994 0 17.4475 0 12.3467C0 5.52752 5.59615 0 12.5 0ZM12.5 7.59797C11.2249 7.59797 10.0021 8.09828 9.10045 8.98884C8.19883 9.8794 7.69231 11.0873 7.69231 12.3467C7.69231 13.6061 8.19883 14.814 9.10045 15.7046C10.0021 16.5951 11.2249 17.0954 12.5 17.0954C13.7751 17.0954 14.9979 16.5951 15.8996 15.7046C16.8012 14.814 17.3077 13.6061 17.3077 12.3467C17.3077 11.0873 16.8012 9.8794 15.8996 8.98884C14.9979 8.09828 13.7751 7.59797 12.5 7.59797Z" fill="#FFBB0B"/>
</svg>
