<svg width="31" height="31" viewBox="0 0 31 31" fill="none" xmlns="http://www.w3.org/2000/svg">
<path d="M5.55016 29.6568C5.39904 30.5743 6.24765 31.2914 6.99551 30.8822L15.501 26.2202L24.0045 30.8822C24.7524 31.2914 25.601 30.5743 25.4499 29.6588L23.8418 19.8842L30.6655 12.949C31.3049 12.3002 30.9755 11.114 30.1192 10.9859L20.6295 9.54757L16.398 0.605784C16.3174 0.424528 16.1902 0.271388 16.0313 0.164156C15.8723 0.056923 15.6881 0 15.5 0C15.3119 0 15.1277 0.056923 14.9687 0.164156C14.8098 0.271388 14.6826 0.424528 14.602 0.605784L10.3706 9.54964L0.880875 10.9879C0.026453 11.1161 -0.304853 12.3022 0.332572 12.9511L7.15826 19.8863L5.55016 29.6609V29.6568ZM15.0534 23.9387L7.91193 27.8527L9.25653 19.6755C9.28803 19.4873 9.27571 19.2937 9.22064 19.1117C9.16558 18.9298 9.06946 18.765 8.94073 18.6319L3.31046 12.9077L11.1611 11.7174C11.3236 11.6912 11.4778 11.6234 11.6104 11.5197C11.743 11.4161 11.8501 11.2797 11.9225 11.1223L15.4971 3.56296L19.0756 11.1223C19.148 11.2797 19.2551 11.4161 19.3877 11.5197C19.5203 11.6234 19.6745 11.6912 19.837 11.7174L27.6876 12.9056L22.0574 18.6299C21.9283 18.7632 21.832 18.9283 21.777 19.1106C21.7219 19.293 21.7097 19.487 21.7416 19.6755L23.0862 27.8527L15.9447 23.9387C15.8066 23.8628 15.6534 23.8232 15.4981 23.8232C15.3427 23.8232 15.1896 23.8628 15.0515 23.9387H15.0534Z" fill="#FFBB0B"/>
</svg>
